<?xml version="1.0" encoding="UTF-8"?>
<svg id="Layer_20_copy" data-name="Layer 20 copy" xmlns="http://www.w3.org/2000/svg" viewBox="0 0 511.92 510.79">
  <defs>
    <style>
      .cls-1, .cls-2, .cls-3, .cls-4, .cls-5, .cls-6 {
        stroke-linejoin: round;
      }

      .cls-1, .cls-2, .cls-6 {
        stroke-width: 2px;
      }

      .cls-1, .cls-3, .cls-4, .cls-5, .cls-6 {
        stroke: #000;
      }

      .cls-2 {
        fill: none;
        stroke: #fff;
        stroke-linecap: round;
      }

      .cls-3, .cls-4 {
        stroke-width: 2.12px;
      }

      .cls-3, .cls-5, .cls-6 {
        fill: #f4f1e6;
      }

      .cls-5 {
        stroke-width: 1.66px;
      }
    </style>
  </defs>
  <g>
    <ellipse class="cls-6" cx="44.48" cy="263.97" rx="43.02" ry="55.98"/>
    <ellipse class="cls-6" cx="136.61" cy="190.94" rx="43.02" ry="55.98"/>
    <path class="cls-6" d="M145.61,150.62c-17.96,0-32.53,18.95-32.53,42.33s14.56,42.33,32.53,42.33c0,0,24.2-10,63.01-10s69.24,10,69.24,10v-84.66s-29.86,10-69.24,10-63.01-10-63.01-10Z"/>
    <path class="cls-6" d="M53.48,223.64c-17.96,0-32.53,18.95-32.53,42.33s14.56,42.33,32.53,42.33c0,0,24.2-10,63.01-10s69.24,10,69.24,10v-84.66s-29.86,10-69.24,10-63.01-10-63.01-10Z"/>
  </g>
  <polygon class="cls-3" points="237.89 265.08 82.83 381.57 82.83 220.77 237.89 104.27 237.89 265.08"/>
  <polygon class="cls-6" points="240.95 267.53 94.54 377.53 94.54 225.69 240.95 115.69 240.95 267.53"/>
  <polygon class="cls-6" points="498.94 323.47 266.5 498.1 266.5 257.05 498.94 82.41 498.94 323.47"/>
  <polygon class="cls-6" points="510.3 331.47 277.86 506.1 277.86 265.05 510.3 90.41 510.3 331.47"/>
  <polygon class="cls-6" points="486.83 320.76 301.33 460.13 301.33 277.75 486.83 138.38 486.83 320.76"/>
  <polygon class="cls-1" points="498.94 82.41 510.3 90.41 277.86 265.05 266.5 257.05 498.94 82.41"/>
  <polygon class="cls-1" points="277.86 506.1 266.5 498.1 266.5 257.05 277.86 265.05 277.86 506.1"/>
  <polygon class="cls-6" points="498.94 82.41 240.95 115.69 94.54 225.69 266.5 257.05 498.94 82.41"/>
  <polygon class="cls-1" points="430.42 112 279.86 134 183.06 206.72 276.75 227.46 430.42 112"/>
  <polygon class="cls-6" points="266.5 498.1 94.54 377.53 94.54 225.69 266.5 257.05 266.5 498.1"/>
  <polygon class="cls-4" points="240.95 115.69 237.89 104.27 82.83 220.77 94.54 225.69 240.95 115.69"/>
  <polygon class="cls-4" points="94.54 377.53 82.83 381.57 82.83 220.77 94.54 225.69 94.54 377.53"/>
  <polygon class="cls-6" points="316.4 1.92 272.01 129.78 174.52 201.56 161.62 115.87 316.4 1.92"/>
  <polygon class="cls-1" points="322.3 4.18 277.92 132.04 180.43 203.82 167.52 118.14 322.3 4.18"/>
  <polygon class="cls-5" points="309.01 34.77 270.27 133.61 192.58 191.02 185.9 122.1 309.01 34.77"/>
  <polygon class="cls-5" points="318.32 40.21 279.59 139.04 201.89 196.46 195.21 127.53 318.32 40.21"/>
  <ellipse class="cls-1" cx="491.7" cy="123.32" rx="6.86" ry="4.46" transform="translate(279.59 583.74) rotate(-79.34)"/>
  <ellipse class="cls-1" cx="491.7" cy="328.94" rx="6.86" ry="4.46" transform="translate(77.51 751.34) rotate(-79.34)"/>
  <ellipse class="cls-1" cx="294.74" cy="269.84" rx="6.86" ry="4.46" transform="translate(-24.95 509.61) rotate(-79.34)"/>
  <ellipse class="cls-1" cx="294.74" cy="474.15" rx="6.86" ry="4.46" transform="translate(-225.73 676.14) rotate(-79.34)"/>
  <g>
    <path class="cls-6" d="M119.81,252.87c-1.98-5.34-7.2-8.33-11.68-6.67-.86.32-1.63.79-2.3,1.37l-.04-.05-41.72,29.55,11.82,16.7,41.72-29.55-.04-.05c2.81-2.45,3.82-6.98,2.23-11.29Z"/>
    <ellipse class="cls-1" cx="79.65" cy="279.91" rx="26.63" ry="31.78" transform="translate(-129.28 77.33) rotate(-30)"/>
    <ellipse class="cls-6" cx="73.11" cy="283.69" rx="26.63" ry="31.78" transform="translate(-132.05 74.56) rotate(-30)"/>
    <ellipse class="cls-1" cx="73.11" cy="283.69" rx="8.64" ry="10.31" transform="translate(-132.05 74.56) rotate(-30)"/>
  </g>
  <line class="cls-2" x1="94.54" y1="225.69" x2="82.83" y2="220.77"/>
  <line class="cls-2" x1="277.86" y1="265.05" x2="266.5" y2="257.05"/>
  <polygon class="cls-6" points="195.21 127.53 185.9 122.1 309.01 34.77 318.32 40.21 195.21 127.53"/>
  <polygon class="cls-6" points="201.89 196.46 192.58 191.02 185.9 122.1 195.21 127.53 201.89 196.46"/>
  <polygon class="cls-6" points="322.3 4.18 316.4 1.92 161.62 115.87 167.52 118.14 322.3 4.18"/>
  <polygon class="cls-6" points="174.52 201.56 180.43 203.82 167.52 118.14 161.62 115.87 174.52 201.56"/>
</svg>