<?xml version="1.0" encoding="UTF-8"?>
<svg xmlns="http://www.w3.org/2000/svg" viewBox="0 0 1204.43 565.63">
  <defs>
    <style>
      .cls-1, .cls-2, .cls-3, .cls-4, .cls-5 {
        stroke: #000;
        stroke-linejoin: round;
      }

      .cls-1, .cls-3 {
        stroke-width: 2px;
      }

      .cls-2, .cls-4 {
        stroke-width: 2.06px;
      }

      .cls-3, .cls-4, .cls-5 {
        fill: #f4f1e6;
      }

      .cls-6 {
        stroke-width: 0px;
      }

      .cls-5 {
        stroke-width: 2.06px;
      }
    </style>
  </defs>
  <g id="Layer_13" data-name="Layer 13">
    <g>
      <polygon class="cls-3" points="944.98 517.89 605.96 436.77 605.96 476.52 944.98 557.85 944.98 517.89"/>
      <polygon class="cls-3" points="944.98 557.85 1200.45 390.76 1200.45 358.07 944.98 517.89 944.98 557.85"/>
      <polygon class="cls-3" points="944.77 511.01 616.01 433.01 616.01 132.27 944.77 210.27 944.77 511.01"/>
      <polygon class="cls-5" points="1068.83 435.01 944.77 511.01 944.77 210.96 1068.83 134.96 1068.83 435.01"/>
      <polygon class="cls-5" points="1132.88 375.09 1068.83 414.09 1068.83 154.04 1132.88 115.04 1132.88 375.09"/>
      <polygon class="cls-5" points="1163.14 366.42 1142.08 379.42 1142.08 100.38 1163.14 87.38 1163.14 366.42"/>
      <polygon class="cls-5" points="1068.83 134.96 740.49 56.29 616.44 132.29 944.77 210.96 1068.83 134.96"/>
      <polygon class="cls-4" points="1068.83 154.04 1132.88 115.02 825.47 41.36 784.06 66.73 1068.83 134.96 1068.83 154.04"/>
      <polygon class="cls-5" points="1142.08 100.38 1163.14 87.37 834.81 8.7 815.4 20.59 1142.08 100.38"/>
      <polygon class="cls-2" points="605.96 436.77 616.01 433.01 944.77 511.01 944.98 517.89 605.96 436.77"/>
      <polygon class="cls-2" points="1142.08 379.42 1068.83 425.2 1068.83 414.09 1132.88 375.09 1142.08 379.42"/>
      <polygon class="cls-2" points="815.4 47.53 815.4 20.59 1142.08 100.38 1142.08 379.42 1132.88 375.09 1132.88 115.02 825.47 41.36 815.4 47.53"/>
      <polygon class="cls-2" points="1163.14 366.42 1191.63 349.57 1163.14 345.2 1163.14 366.42"/>
      <polygon class="cls-4" points="1191.63 349.57 1191.63 358.07 1068.83 435.01 1068.83 425.2 1191.63 349.57"/>
      <polygon class="cls-2" points="1200.45 358.07 1191.63 358.07 944.77 511.01 944.98 517.89 1200.45 358.07"/>
    </g>
    <g>
      <ellipse class="cls-3" cx="775.25" cy="321.64" rx="57.47" ry="71.66" transform="translate(-40.33 123.43) rotate(-8.87)"/>
      <path class="cls-1" d="M811.2,315.87c-4.14-26.55-26.28-45.14-49.44-41.52-4.56.71-8.81,2.24-12.67,4.42h0s-23.75,13.75-23.75,13.75l4.46,9.8c-2.94,8.06-3.94,17.22-2.47,26.65,3.14,20.1,16.59,35.63,32.99,40.42l5.08,11.16,22.86-13.83c1.54-.8,3.02-1.69,4.44-2.68h0s0,0,0,0c13.79-9.69,21.6-28.33,18.51-48.15Z"/>
      <ellipse class="cls-3" cx="746.85" cy="335.39" rx="42.45" ry="48.65" transform="translate(-42.8 119.22) rotate(-8.87)"/>
      <ellipse class="cls-1" cx="746.85" cy="335.39" rx="15.33" ry="17.57" transform="translate(-42.8 119.22) rotate(-8.87)"/>
      <ellipse class="cls-3" cx="746.85" cy="372.47" rx="17.58" ry="20.15" transform="translate(-48.51 119.66) rotate(-8.87)"/>
      <circle class="cls-1" cx="746.85" cy="359.21" r="2.89"/>
    </g>
    <polygon class="cls-3" points="1028.82 279.01 993.92 299.16 978.74 323.61 978.74 345.79 993.92 352.71 1028.82 332.56 1043.99 308.12 1043.99 285.94 1028.82 279.01"/>
  </g>
  <g id="Layer_14" data-name="Layer 14">
    <path class="cls-6" d="M412.22,68.05l69.33,376.09-376.09,69.33L36.13,137.38l376.09-69.33M413.82,65.72l-1.97.36L35.76,135.42l-1.97.36.36,1.97,69.33,376.09.36,1.97,1.97-.36,376.09-69.33,1.97-.36-.36-1.97-69.33-376.09-.36-1.97h0Z"/>
  </g>
</svg>