<?xml version="1.0" encoding="UTF-8"?>
<svg xmlns="http://www.w3.org/2000/svg" viewBox="0 0 1204.43 565.63">
  <defs>
    <style>
      .cls-1, .cls-2, .cls-3, .cls-4, .cls-5 {
        stroke: #000;
        stroke-linejoin: round;
      }

      .cls-1, .cls-3 {
        stroke-width: 2px;
      }

      .cls-2, .cls-4 {
        stroke-width: 2.06px;
      }

      .cls-3, .cls-4, .cls-5 {
        fill: #f4f1e6;
      }

      .cls-6, .cls-7, .cls-8 {
        stroke-width: 0px;
      }

      .cls-7 {
        fill: #b3b3b3;
      }

      .cls-8 {
        fill: #666;
      }

      .cls-5 {
        stroke-width: 2.06px;
      }
    </style>
  </defs>
  <g id="Layer_13" data-name="Layer 13">
    <g>
      <polygon class="cls-3" points="944.98 517.89 605.96 436.77 605.96 476.52 944.98 557.85 944.98 517.89"/>
      <polygon class="cls-3" points="944.98 557.85 1200.45 390.76 1200.45 358.07 944.98 517.89 944.98 557.85"/>
      <polygon class="cls-3" points="944.77 511.01 616.01 433.01 616.01 132.27 944.77 210.27 944.77 511.01"/>
      <polygon class="cls-5" points="1068.83 435.01 944.77 511.01 944.77 210.96 1068.83 134.96 1068.83 435.01"/>
      <polygon class="cls-5" points="1132.88 375.09 1068.83 414.09 1068.83 154.04 1132.88 115.04 1132.88 375.09"/>
      <polygon class="cls-5" points="1163.14 366.42 1142.08 379.42 1142.08 100.38 1163.14 87.38 1163.14 366.42"/>
      <polygon class="cls-5" points="1068.83 134.96 740.49 56.29 616.44 132.29 944.77 210.96 1068.83 134.96"/>
      <polygon class="cls-4" points="1068.83 154.04 1132.88 115.02 825.47 41.36 784.06 66.73 1068.83 134.96 1068.83 154.04"/>
      <polygon class="cls-5" points="1142.08 100.38 1163.14 87.37 834.81 8.7 815.4 20.59 1142.08 100.38"/>
      <polygon class="cls-2" points="605.96 436.77 616.01 433.01 944.77 511.01 944.98 517.89 605.96 436.77"/>
      <polygon class="cls-2" points="1142.08 379.42 1068.83 425.2 1068.83 414.09 1132.88 375.09 1142.08 379.42"/>
      <polygon class="cls-2" points="815.4 47.53 815.4 20.59 1142.08 100.38 1142.08 379.42 1132.88 375.09 1132.88 115.02 825.47 41.36 815.4 47.53"/>
      <polygon class="cls-2" points="1163.14 366.42 1191.63 349.57 1163.14 345.2 1163.14 366.42"/>
      <polygon class="cls-4" points="1191.63 349.57 1191.63 358.07 1068.83 435.01 1068.83 425.2 1191.63 349.57"/>
      <polygon class="cls-2" points="1200.45 358.07 1191.63 358.07 944.77 511.01 944.98 517.89 1200.45 358.07"/>
    </g>
    <g>
      <ellipse class="cls-3" cx="775.25" cy="321.64" rx="57.47" ry="71.66" transform="translate(-40.33 123.43) rotate(-8.87)"/>
      <path class="cls-1" d="M811.2,315.87c-4.14-26.55-26.28-45.14-49.44-41.52-4.56.71-8.81,2.24-12.67,4.42h0s-23.75,13.75-23.75,13.75l4.46,9.8c-2.94,8.06-3.94,17.22-2.47,26.65,3.14,20.1,16.59,35.63,32.99,40.42l5.08,11.16,22.86-13.83c1.54-.8,3.02-1.69,4.44-2.68h0s0,0,0,0c13.79-9.69,21.6-28.33,18.51-48.15Z"/>
      <ellipse class="cls-3" cx="746.85" cy="335.39" rx="42.45" ry="48.65" transform="translate(-42.8 119.22) rotate(-8.87)"/>
      <ellipse class="cls-1" cx="746.85" cy="335.39" rx="15.33" ry="17.57" transform="translate(-42.8 119.22) rotate(-8.87)"/>
      <ellipse class="cls-3" cx="746.85" cy="372.47" rx="17.58" ry="20.15" transform="translate(-48.51 119.66) rotate(-8.87)"/>
      <circle class="cls-1" cx="746.85" cy="359.21" r="2.89"/>
    </g>
    <polygon class="cls-3" points="1028.82 279.01 993.92 299.16 978.74 323.61 978.74 345.79 993.92 352.71 1028.82 332.56 1043.99 308.12 1043.99 285.94 1028.82 279.01"/>
  </g>
  <g id="Layer_12_copy" data-name="Layer 12 copy">
    <g>
      <path class="cls-7" d="M71.85,336.66l138.6-25.55c-.63-3.96-.78-7.68-.46-11.09,2.19-23.2,26.33-30.79,52.09-35.54l49.6-9.14c3.39-.63,6.34-2.54,8.29-5.38,1.96-2.84,2.69-6.27,2.06-9.67l-3.29-17.82c-5.7-30.93-2.64-52.55,9.35-66.12,10.58-11.96,26.78-17,47.84-20.89,2.95-.54,5.95-.82,8.92-.82,23.55,0,43.75,16.83,48.02,40.03l49.83,270.27-378.06,69.7-32.81-177.98Z"/>
      <path class="cls-6" d="M384.87,135.64c22.65,0,42.79,16.14,47.04,39.21l49.64,269.29-376.09,69.33-32.45-176.01,138.59-25.55c-.77-4.34-.95-8.25-.61-11.8,2.08-22.01,24.15-29.66,51.27-34.66l49.6-9.14c7.56-1.39,12.55-8.65,11.16-16.21l-3.29-17.82c-12.3-66.72,17.82-78.73,56.39-85.84,2.93-.54,5.85-.8,8.73-.8M384.87,133.64h0c-3.03,0-6.09.28-9.1.83-21.27,3.92-37.64,9.03-48.41,21.21-12.21,13.81-15.35,35.71-9.59,66.96l3.29,17.82c.58,3.13-.1,6.3-1.9,8.92-1.81,2.62-4.52,4.38-7.65,4.96l-49.6,9.14c-26.14,4.82-50.65,12.57-52.9,36.43-.31,3.21-.2,6.69.32,10.37l-136.67,25.2-1.97.36.36,1.97,32.45,176.01.36,1.97,1.97-.36,376.09-69.33,1.97-.36-.36-1.97-49.64-269.29c-4.36-23.67-24.97-40.85-49-40.85h0Z"/>
    </g>
    <g>
      <path class="cls-7" d="M71.7,335.86l-22.66-122.92.74-1.15c.74-.18,1.47-.34,2.2-.48,9.07-1.67,15.88-2.42,22.09-2.42,9.7,0,17.78,1.92,24.71,5.88,15.31,8.74,25.51,27.92,31.17,58.62,2.79,15.14,14.32,26.13,27.41,26.13h0c1.37,0,2.74-.13,4.09-.38l11.9-2.19c8.19-1.51,14.28-2.18,19.72-2.18,6.29,0,11.67.95,16.45,2.91l.62,1.02c-.33,3.51-.13,7.38.6,11.53l-.8,1.16-137.07,25.27-1.17-.8Z"/>
      <path class="cls-6" d="M74.06,209.89c8.6,0,16.79,1.51,24.21,5.75,13.55,7.74,24.53,24.57,30.68,57.94,2.9,15.72,15.12,26.95,28.4,26.95,1.42,0,2.84-.13,4.28-.39l11.9-2.19c7.11-1.31,13.59-2.17,19.54-2.17,5.82,0,11.15.82,16.08,2.83-.34,3.55-.15,7.46.61,11.8l-137.07,25.27-22.66-122.92c.72-.18,1.43-.33,2.14-.46,7.44-1.37,14.81-2.4,21.91-2.4M74.06,207.89c-6.27,0-13.14.75-22.27,2.43-.74.14-1.5.3-2.26.49l-1.48,2.3,22.66,122.92,2.33,1.6,137.07-25.27,1.61-2.32c-.72-4.05-.92-7.84-.59-11.26l-1.23-2.04c-4.91-2.01-10.42-2.98-16.83-2.98-5.51,0-11.65.68-19.91,2.2l-11.9,2.19c-1.29.24-2.61.36-3.91.36-12.41,0-23.77-10.88-26.43-25.31-5.72-31.01-16.07-50.41-31.65-59.31-7.08-4.05-15.33-6.01-25.2-6.01h0Z"/>
    </g>
    <path class="cls-6" d="M412.22,68.05l69.33,376.09-376.09,69.33L36.13,137.38l376.09-69.33M413.82,65.72l-1.97.36L35.76,135.42l-1.97.36.36,1.97,69.33,376.09.36,1.97,1.97-.36,376.09-69.33,1.97-.36-.36-1.97-69.33-376.09-.36-1.97h0Z"/>
    <g>
      <rect class="cls-8" x="85.07" y="300.31" width="384.43" height="180.98" transform="translate(-66.26 56.75) rotate(-10.45)"/>
      <path class="cls-6" d="M449.1,268.13l32.45,176.01-376.09,69.33-32.45-176.01,376.09-69.33M450.71,265.8l-1.97.36-376.09,69.33-1.97.36.36,1.97,32.45,176.01.36,1.97,1.97-.36,376.09-69.33,1.97-.36-.36-1.97-32.45-176.01-.36-1.97h0Z"/>
    </g>
    <g>
      <g>
        <path class="cls-8" d="M108.56,270.47c-4.85,0-9.01-3.47-9.89-8.24-1.01-5.46,2.62-10.71,8.07-11.72l7.04-1.3-6.2-33.65c-.69-3.75.12-7.54,2.28-10.68,2.16-3.14,5.42-5.25,9.16-5.94l2.21-.41c.86-.16,1.73-.24,2.6-.24,2.41,0,4.74.6,6.83,1.75.24-13.58,10.12-25.39,23.65-27.88l4.4-.81c1.74-.32,3.52-.48,5.27-.48,13.92,0,25.86,9.95,28.39,23.66l2.23,12.07c1.18-.93,2.57-1.57,4.06-1.84.56-.1,1.13-.16,1.69-.16,4.47,0,8.3,3.19,9.11,7.59l3.45,18.73,7.04-1.3c.61-.11,1.22-.17,1.83-.17,4.85,0,9,3.46,9.88,8.24,1.01,5.46-2.62,10.71-8.07,11.72l-113.18,20.87c-.61.11-1.22.17-1.83.17h0Z"/>
        <path class="cls-6" d="M163.97,171.88c13.19,0,24.92,9.4,27.4,22.84l2.57,13.92c1.2-1.45,2.89-2.51,4.88-2.88.51-.09,1.01-.14,1.51-.14,3.91,0,7.39,2.79,8.12,6.77l3.64,19.72,8.02-1.48c.56-.1,1.11-.15,1.65-.15,4.29,0,8.1,3.05,8.9,7.42.91,4.92-2.35,9.65-7.27,10.56l-48.82,9-4.4.81-36.69,6.76-2.21.41-21.06,3.88c-.56.1-1.11.15-1.65.15-4.29,0-8.1-3.05-8.9-7.42-.91-4.92,2.35-9.65,7.27-10.56l8.02-1.48-6.39-34.64c-1.33-7.2,3.44-14.12,10.64-15.45l2.21-.41c.81-.15,1.62-.22,2.42-.22,2.89,0,5.62.95,7.86,2.59-.66-13.73,8.91-26.18,22.8-28.74l4.4-.81c1.71-.32,3.41-.47,5.09-.47M163.97,169.88c-1.82,0-3.65.17-5.45.5l-4.4.81c-13.49,2.49-23.46,13.91-24.4,27.3-1.85-.78-3.85-1.19-5.9-1.19-.93,0-1.86.09-2.78.25l-2.21.41c-4.01.74-7.49,3-9.8,6.35-2.31,3.36-3.18,7.42-2.44,11.42l6.02,32.67-6.05,1.12c-6,1.11-9.98,6.89-8.87,12.88.97,5.25,5.54,9.06,10.87,9.06.67,0,1.35-.06,2.02-.18l21.06-3.88,2.21-.41,36.69-6.76,4.4-.81,48.82-9c2.91-.54,5.43-2.17,7.11-4.6,1.68-2.43,2.3-5.37,1.77-8.28-.97-5.25-5.54-9.06-10.87-9.06-.67,0-1.35.06-2.02.18l-6.05,1.12-3.27-17.75c-.9-4.87-5.14-8.41-10.09-8.41-.62,0-1.25.06-1.87.17-1.12.21-2.19.6-3.17,1.15l-1.95-10.58c-2.61-14.18-14.97-24.48-29.37-24.48h0Z"/>
      </g>
      <g>
        <path class="cls-8" d="M185.88,379.11c-4.39,0-7.79-1.7-8.79-4.3h-.07s-.2-1-.2-1l-21-113.91,22.02-4.06,21.18,114.86h-.06c.03,1.7-.87,3.4-2.58,4.87-1.82,1.57-4.4,2.72-7.24,3.25-1.09.2-2.19.3-3.26.3h0Z"/>
        <path class="cls-6" d="M177.05,257l20.82,112.93h0c.02.07.03.13.05.2.6,3.23-3.41,6.68-8.95,7.7-1.05.19-2.09.29-3.07.29-4.2,0-7.55-1.67-8.03-4.29-.01-.07-.02-.14-.03-.2h0s-20.82-112.93-20.82-112.93l20.05-3.7M178.66,254.67l-1.97.36-20.05,3.7-1.97.36.36,1.97,20.82,112.93.36,1.96.29-.05c1.44,2.58,4.96,4.22,9.38,4.22,1.13,0,2.29-.11,3.44-.32,3.02-.56,5.76-1.79,7.72-3.47,1.65-1.42,2.64-3.06,2.87-4.73l.28-.05-.3-1.64s-.01-.08-.02-.13c0-.02,0-.04-.01-.06l-.03-.14-20.82-112.93-.36-1.97h0Z"/>
      </g>
    </g>
    <g>
      <path class="cls-8" d="M240.81,409.6c-30.02,0-48.25-5.49-50.02-15.06-2.96-16.04,42.04-37.33,102.43-48.47,22.39-4.13,44.16-6.31,62.96-6.31,30.02,0,48.25,5.49,50.02,15.06,1.96,10.62-16.84,21.09-28.22,26.39-19.27,8.97-45.63,16.81-74.21,22.08-22.39,4.13-44.16,6.31-62.96,6.31Z"/>
      <path class="cls-6" d="M356.19,340.76c28.09,0,47.32,4.95,49.03,14.25,2.81,15.26-42.69,36.44-101.63,47.3-23.05,4.25-44.74,6.29-62.78,6.29-28.09,0-47.32-4.95-49.03-14.24-2.81-15.26,42.69-36.44,101.63-47.3,23.05-4.25,44.74-6.29,62.78-6.29M356.19,338.76h0c-18.86,0-40.7,2.19-63.14,6.33-28.67,5.29-55.11,13.15-74.45,22.16-25.76,11.99-29.87,21.56-28.78,27.47.99,5.36,6.39,9.45,16.05,12.17,8.64,2.43,20.72,3.71,34.95,3.71,18.86,0,40.7-2.19,63.14-6.33,28.67-5.29,55.11-13.15,74.45-22.16,25.76-11.99,29.87-21.56,28.78-27.47-.99-5.36-6.39-9.45-16.05-12.17-8.64-2.43-20.72-3.71-34.95-3.71h0Z"/>
    </g>
    <path class="cls-6" d="M412.22,68.05l69.33,376.09-376.09,69.33L36.13,137.38l376.09-69.33M413.82,65.72l-1.97.36L35.76,135.42l-1.97.36.36,1.97,69.33,376.09.36,1.97,1.97-.36,376.09-69.33,1.97-.36-.36-1.97-69.33-376.09-.36-1.97h0Z"/>
    <g>
      <path class="cls-6" d="M320.41,474.02c-.92-2.49-1.64-5.12-2.14-7.81-3.55-19.25,5.06-37.03,19.19-39.64,1.16-.21,2.35-.32,3.54-.32,5.94,0,11.98,2.77,17.01,7.72-.63-2.56-1.21-5.25-1.73-8.04-6.03-32.71-.65-65.52,15.15-92.36,15.83-26.89,40.21-44.59,68.65-49.83,3.9-.72,7.86-1.2,11.76-1.42l.88-.05,29.99,162.66-162.01,29.87-.29-.79Z"/>
      <path class="cls-6" d="M451.9,283.32l29.65,160.81-160.2,29.53c-.89-2.41-1.6-4.97-2.09-7.65-3.45-18.74,4.78-35.96,18.39-38.47,1.12-.21,2.24-.31,3.36-.31,7.01,0,13.85,3.96,19.05,10.48-1.05-3.66-1.98-7.64-2.78-11.97-12.38-67.15,24.78-130.29,83-141.03,3.89-.72,7.77-1.18,11.63-1.4M453.55,281.23l-1.76.1c-3.94.22-7.94.71-11.88,1.43-28.74,5.3-53.36,23.16-69.33,50.31-15.92,27.05-21.34,60.1-15.27,93.05.32,1.71.65,3.38,1.01,5.01-4.69-3.79-10.03-5.87-15.32-5.87-1.24,0-2.5.11-3.72.34-7.23,1.33-13.28,6.4-17.04,14.25-3.65,7.64-4.7,17.07-2.96,26.55.51,2.74,1.24,5.43,2.18,7.98l.58,1.58,1.65-.31,160.2-29.53,1.97-.36-.36-1.97-29.65-160.81-.32-1.73h0Z"/>
    </g>
    <g>
      <path class="cls-6" d="M78.76,374.15l1.69.68c15.9,6.39,30.03,18.15,39.96,33.21,4.59-8.69,11.43-14.25,19.4-15.72,1.39-.26,2.82-.39,4.24-.39,17.04,0,33.29,18.47,37.8,42.95.02.12.04.23.06.35,2.35-2.18,5.12-3.61,8.12-4.17.93-.17,1.88-.26,2.82-.26,9.84,0,19,9.41,21.3,21.89,1.24,6.73.39,13.43-2.4,18.87-2.41,5.79-7.59,9.98-13.82,11.13l-95.9,17.68-23.27-126.23Z"/>
      <path class="cls-6" d="M80.07,375.75c16.25,6.53,30.49,18.54,40.44,34.3,4.27-8.95,11.04-15.2,19.47-16.75,1.35-.25,2.71-.37,4.06-.37,16.37,0,32.33,17.81,36.82,42.14.14.77.27,1.53.39,2.29,2.39-2.76,5.44-4.66,8.96-5.31.88-.16,1.77-.24,2.64-.24,9.29,0,18.06,8.84,20.32,21.07,1.24,6.73.27,13.21-2.3,18.23-2.22,5.33-7.01,9.48-13.11,10.6l-94.92,17.5-22.76-123.46M77.45,372.54l.66,3.57,22.76,123.46.36,1.97,1.97-.36,94.92-17.5c6.54-1.21,11.98-5.59,14.56-11.73,2.86-5.62,3.73-12.51,2.45-19.43-2.39-12.95-11.97-22.71-22.28-22.71-1.01,0-2.02.09-3.01.27-2.63.49-5.1,1.6-7.28,3.28-4.94-24.28-21.33-42.43-38.52-42.43-1.48,0-2.97.14-4.42.4-7.82,1.44-14.58,6.65-19.3,14.79-9.98-14.58-23.89-25.95-39.5-32.23l-3.37-1.35h0Z"/>
    </g>
    <path class="cls-6" d="M412.22,68.05l69.33,376.09-376.09,69.33L36.13,137.38l376.09-69.33M413.82,65.72l-1.97.36L35.76,135.42l-1.97.36.36,1.97,69.33,376.09.36,1.97,1.97-.36,376.09-69.33,1.97-.36-.36-1.97-69.33-376.09-.36-1.97h0Z"/>
  </g>
</svg>