<?xml version="1.0" encoding="UTF-8"?>
<svg width="380" height="460" id="Layer_2" data-name="Layer 2" xmlns="http://www.w3.org/2000/svg" viewBox="0 0 580 678">
  <defs>
    <style>
      .cls-1 {
        stroke-width: 0px;
      }
    </style>
  </defs>
  <g id="Layer_1-2" data-name="Layer 1">
    <g>
      <path class="cls-1" d="M290,676c-76.87,0-149.15-35.01-203.54-98.59C32,513.74,2,429.07,2,339S32,164.26,86.46,100.59C140.85,37.01,213.13,2,290,2s149.15,35.01,203.54,98.59c54.46,63.67,84.46,148.34,84.46,238.41s-30,174.74-84.46,238.41c-54.39,63.58-126.67,98.59-203.54,98.59Z"/>
      <path class="cls-1" d="M290,4c38.53,0,75.91,8.82,111.11,26.23,34.05,16.83,64.63,40.94,90.91,71.66,26.32,30.77,46.99,66.6,61.43,106.52,14.96,41.36,22.55,85.29,22.55,130.59s-7.59,89.24-22.55,130.59c-14.44,39.91-35.11,75.75-61.43,106.52-26.28,30.72-56.87,54.83-90.91,71.66-35.2,17.4-72.58,26.23-111.11,26.23s-75.91-8.82-111.11-26.23c-34.05-16.83-64.63-40.94-90.91-71.66-26.32-30.77-46.99-66.6-61.43-106.52-14.96-41.36-22.55-85.29-22.55-130.59s7.59-89.24,22.55-130.59c14.44-39.91,35.11-75.75,61.43-106.52,26.28-30.72,56.87-54.83,90.91-71.66,35.2-17.4,72.58-26.23,111.11-26.23M290,0C129.84,0,0,151.78,0,339s129.84,339,290,339,290-151.78,290-339S450.16,0,290,0h0Z"/>
    </g>
  </g>
</svg>