<?xml version="1.0" encoding="UTF-8"?>
<svg width="380" height="460" id="Layer_2" data-name="Layer 2" xmlns="http://www.w3.org/2000/svg" viewBox="0 0 580 678">
  <defs>
    <style>
      .cls-1 {
        stroke-width: 0px;
      }
    </style>
  </defs>
  <g id="Layer_1-2" data-name="Layer 1">
    <path class="cls-1" d="M290,4c38.53,0,75.91,8.82,111.11,26.23,34.05,16.83,64.63,40.94,90.91,71.66,26.32,30.77,46.99,66.6,61.43,106.52,14.96,41.36,22.55,85.29,22.55,130.59s-7.59,89.24-22.55,130.59c-14.44,39.91-35.11,75.75-61.43,106.52-26.28,30.72-56.87,54.83-90.91,71.66-35.2,17.4-72.58,26.23-111.11,26.23s-75.91-8.82-111.11-26.23c-34.05-16.83-64.63-40.94-90.91-71.66-26.32-30.77-46.99-66.6-61.43-106.52-14.96-41.36-22.55-85.29-22.55-130.59s7.59-89.24,22.55-130.59c14.44-39.91,35.11-75.75,61.43-106.52,26.28-30.72,56.87-54.83,90.91-71.66,35.2-17.4,72.58-26.23,111.11-26.23M290,0C129.84,0,0,151.78,0,339s129.84,339,290,339,290-151.78,290-339S450.16,0,290,0h0Z"/>
    <g>
      <path class="cls-1" d="M566.3,243.7c-76.61-54.02-174.49-83.7-276.3-83.7S90.31,189.69,13.7,243.7c17.02-67.6,52.61-128.41,100.58-171.71C165.01,26.2,225.78,2,290,2s124.99,24.2,175.72,69.99c47.97,43.3,83.56,104.11,100.58,171.71Z"/>
      <path class="cls-1" d="M290,4c32.1,0,63.61,6.18,93.66,18.38,29.08,11.8,56.23,28.99,80.72,51.1,24.27,21.9,45.28,48.06,62.47,77.73,15.72,27.15,27.87,56.63,36.17,87.77-76.27-52.29-172.75-80.98-273.02-80.98S93.25,186.69,16.98,238.98c8.3-31.14,20.45-60.62,36.17-87.77,17.18-29.67,38.2-55.83,62.47-77.73,24.49-22.1,51.64-39.29,80.72-51.1,30.05-12.2,61.56-18.38,93.66-18.38M290,0C156.66,0,44.36,105.2,10.48,248.47c74.15-53.76,172.12-86.47,279.52-86.47s205.37,32.7,279.52,86.47C535.64,105.2,423.34,0,290,0h0Z"/>
    </g>
    <g>
      <circle class="cls-1" cx="290" cy="357" r="107"/>
      <path class="cls-1" d="M290,252c57.9,0,105,47.1,105,105s-47.1,105-105,105-105-47.1-105-105,47.1-105,105-105M290,248c-60.2,0-109,48.8-109,109s48.8,109,109,109,109-48.8,109-109-48.8-109-109-109h0Z"/>
    </g>
  </g>
</svg>