<?xml version="1.0" encoding="UTF-8"?>
<svg id="Layer_24" data-name="Layer 24" xmlns="http://www.w3.org/2000/svg" viewBox="0 0 826.67 414.29">
  <defs>
    <style>
      .cls-1, .cls-2, .cls-3 {
        fill: #f4f1e6;
      }

      .cls-1, .cls-2, .cls-3, .cls-4 {
        stroke: #000;
        stroke-miterlimit: 10;
      }

      .cls-1, .cls-4 {
        stroke-width: 1.73px;
      }

      .cls-2 {
        stroke-width: 1.72px;
      }

      .cls-3 {
        stroke-width: 8.65px;
      }
    </style>
  </defs>
  <path class="cls-1" d="M648.38,269.16c-2.03-17.46-5.66-44.13-11.49-72.1,3.25-4.68,4.71-10.94,3.76-17.46-1.45-9.88-3.09-23.07-7.26-35.89-4.28-13.14-11.07-25.57-15.95-34.98-3.07-5.92-8.01-10.19-13.47-12.07-11.43-25.11-23.7-47.92-32.14-62.9-6.27-11.13-17.06-18.26-27.82-18.35-9.52-.08-22.39,6.02-36.99,6.45-4.17.12-7.97,1.95-10.48,5.21-15.79,20.44-42.59,31.47-76.91,39.92-35.6,8.77-72.28,6.57-102.28-4.47-4.9-1.8-11.48-4.65-16.02-2.68-16.22,7.04-31.04,14.91-40.32,21.98-11.12,8.46-20.04,19.22-18.96,33.97.97,13.17,2.59,30.88,5.26,50.66,2.16,16.02-5.46,31.79-19.32,40.1-30.88,18.53-58.42,36.87-73.63,47.24-9.49,6.47-14.75,17.59-13.56,28.81,1.07,10.02,4.14,23.61,11.71,40.27,7.95,17.51,16.62,29.05,23.66,36.42,7.35,7.69,18.36,11,28.94,8.75,14.54-3.1,39.95-9.34,75.23-21.11,12.15-4.05,25.47,1.12,31.7,12.31,7.87,14.13,15.24,26.42,21.08,35.81,7.69,12.37,21.18,18.75,34.74,16.56,33.69-5.44,98.15-17.91,150.82-40.4,49.79-21.26,96.55-54.62,118.37-71.26,8.43-6.43,12.78-18.33,11.33-30.8Z"/>
  <g>
    <rect class="cls-1" x="222.27" y="145.98" width="51.7" height="24.41" transform="translate(50.52 -59.86) rotate(15.3)"/>
    <circle class="cls-4" cx="219.97" cy="145.98" r="31.88"/>
  </g>
  <path class="cls-2" d="M651.45,213.01h0c.23-11.9,3.38-21.91,9.44-30.02l-13.21,8.2c-3.58-19.08-8.1-39.03-13.75-57.37-5.55-18.02-12.86-36.63-20.45-54.02l.16.37,7-1.42c-3.87-.18-7.44-2.69-10.76-7.06l.13.3c-9.47-21.03-19.05-39.75-25.96-52.71-6.02-11.28-16.36-18.51-26.68-18.6-8.86-.08-20.76-.04-34.26.37-.9-.02-1.84-.02-2.84,0-4.04.13-16.63,7.29-19.06,10.62-8.9,12.17-21.4,23.17-36.85,31.95-8.12,3.73-16.9,6.88-26.27,9.32-34.14,8.89-69.32,6.66-98.08-4.53-4.7-1.83-9.79-1.67-14.14.33-3.86,1.77-7.62,3.52-11.24,5.23-.44.16-.89.33-1.32.53-15.72,7.21-29.75,14.09-40.31,19.42-12.21,6.16-19.42,19.68-18.37,34.78,1.21,17.46,3.5,42.7,7.65,70.27,1.13,7.49.4,15.22-2.45,22.18-1.78,4.35-2.53,9.21-1.98,14.19,1.43,13.11,2.92,30.78,7.99,47.24,4.95,16.05,13.18,30.32,19.05,41.13,2.32,4.28,5.58,7.71,9.38,10.12,6.13,3.89,11,9.65,14.22,16.39,12.49,26.11,25.35,49.06,34.38,64.41,7.45,12.66,20.52,19.2,33.66,16.95,32.64-5.57,95.1-18.34,146.13-41.37,48.24-21.77,110.94-64.09,121.2-74.68,10.25-10.59,14.98-25.09,13.59-37.73-1.28-11.65-3.23-27.36-6.01-44.82Z"/>
  <g>
    <path class="cls-1" d="M340.07,108.04l-26.35,5.88c-3.94.88-8.05-1.57-9.17-5.47l-7.6-26.5c-1.12-3.9,1.2-7.72,5.16-8.52l26.5-5.37c3.85-.78,7.84,1.69,8.94,5.52l7.45,25.98c1.1,3.83-1.1,7.62-4.93,8.47Z"/>
    <g>
      <g>
        <path class="cls-1" d="M517.34,248.73c55.19-19.96,120.8-50.84,147.43-63.68,7.98-3.85,12.36-13.44,10.87-23.62-1.45-9.88-3.09-23.07-7.26-35.89-4.28-13.14-11.07-25.57-15.95-34.98s-14.24-14.54-23.08-12.83c-28.54,5.52-96.68,19.33-155.94,36.1l4.33-1.22c-62.91,17.8-142.4,46.59-179.43,60.33-11.99,4.45-19.41,16.25-17.96,28.84,1.48,12.81,3.01,30.07,8.24,46.14,5.11,15.68,13.6,29.61,19.66,40.17,6.22,10.84,18.89,16.08,31.09,12.94,38.92-10.02,123.84-32.63,182.22-53.83"/>
        <path class="cls-1" d="M513.17,235.38c51.11-18.08,112.42-45.61,137.41-57.09,7.5-3.44,11.87-11.55,10.84-19.96-1-8.16-2.07-19.08-5.5-29.6-3.51-10.79-9.37-20.89-13.56-28.55s-12.66-11.6-20.87-9.88c-26.48,5.57-89.46,19.32-144.11,35.16l3.98-1.15c-57.75,16.73-130.47,42.91-164.2,55.31-10.9,4.01-17.9,13.89-16.96,24.14s1.83,24.49,6.06,37.48,11.34,23.82,16.48,32.28c5.27,8.69,16.5,12.63,27.56,9.74,35.37-9.25,112.95-30.14,166.78-49.26"/>
      </g>
      <path class="cls-3" d="M415.68,250.04l-38.51,11.61c-11.67,3.52-24.04-2.98-27.87-14.75l-11.63-35.72c-3.86-11.85,2.44-24.39,14.09-28.25l38.17-12.65c11.53-3.82,24.13,2.84,27.99,14.68l11.99,36.81c3.88,11.92-2.52,24.73-14.22,28.26Z"/>
      <path class="cls-3" d="M596.09,187.94l29.8-11.7c8.62-3.38,12.77-14.03,9.48-24.14l-9.99-30.67c-3.31-10.17-13.06-16.39-22.07-14l-30.94,8.2c-9.8,2.6-15.03,13.83-11.45,24.81l11.11,34.12c3.6,11.05,14.56,17.1,24.06,13.37Z"/>
      <path class="cls-4" d="M504.98,178.18c1.45,4.46-.7,9.16-4.83,10.5-4.14,1.35-8.7-1.18-10.16-5.67-1.46-4.49.73-9.2,4.89-10.52s8.65,1.24,10.1,5.69Z"/>
    </g>
  </g>
</svg>