<?xml version="1.0" encoding="UTF-8"?>
<svg xmlns="http://www.w3.org/2000/svg" viewBox="0 0 826.67 414.29">
  <defs>
    <style>
      .cls-1, .cls-2, .cls-3 {
        stroke: #000;
        stroke-linejoin: round;
      }

      .cls-1, .cls-3 {
        stroke-width: 2px;
      }

      .cls-2 {
        fill: none;
        stroke-linecap: round;
        stroke-width: 4px;
      }

      .cls-3 {
        fill: #f4f1e6;
      }
    </style>
  </defs>
  <g id="Layer_15" data-name="Layer 15">
    <g>
      <rect class="cls-3" x="36.14" y="224.87" width="622" height="20.95"/>
      <rect class="cls-3" x="8.02" y="187.07" width="622" height="20.95"/>
      <polygon class="cls-3" points="658.14 224.87 630.02 187.07 8.02 187.07 36.14 224.87 658.14 224.87"/>
      <polygon class="cls-1" points="36.14 245.81 36.14 224.87 8.02 187.07 8.02 208.01 36.14 245.81"/>
    </g>
    <g>
      <path class="cls-3" d="M644.85,229.25s128.12,47.01,169.22-21.89c29.37-82.19-80.38-119.06-80.38-119.06,0,0,3.63-22.36-28.41-33.24s-146.09,7.2-146.09,7.2l85.66,166.99Z"/>
      <path class="cls-1" d="M633.27,224.48c-16.46-12.86-16.26-34.02-26.48-42-10.22-7.98-10.95,12.76-26.48.63-15.53-12.13-36.96-58.33-36.96-94.67v-10.36c0-15.57,15.84-15.82,15.84-15.82,0,0,16.41,3.7,47.6,28.07,31.19,24.37,47.6,46.31,47.6,46.31,0,0,15.84,25,15.84,40.57v10.36c0,36.33-20.5,49.77-36.96,36.91Z"/>
    </g>
    <polygon class="cls-3" points="621.49 130.88 644.08 157.88 644.08 216.47 621.49 189.47 621.49 130.88"/>
    <g>
      <g>
        <rect class="cls-3" x="449.95" y="87.88" width="149.2" height="110.62"/>
        <rect class="cls-3" x="456.46" y="94.36" width="149.2" height="110.62"/>
        <polygon class="cls-3" points="605.66 94.36 599.14 87.88 449.95 87.88 456.46 94.36 605.66 94.36"/>
      </g>
      <g>
        <rect class="cls-3" x="451.45" y="82.99" width="10.15" height="131"/>
        <rect class="cls-3" x="438.3" y="68.86" width="10.15" height="131"/>
        <polygon class="cls-3" points="461.6 82.99 448.45 68.86 438.3 68.86 451.45 82.99 461.6 82.99"/>
        <polygon class="cls-1" points="451.45 213.99 438.3 199.86 438.3 68.86 451.45 82.99 451.45 213.99"/>
      </g>
    </g>
    <path class="cls-3" d="M528.95,409.54c8.43,0,18.93-2.32,25.06-36.85,6.14-34.53-11.2-53.37-11.2-73.99,0-20.62,12.11-35.25,12.11-35.25v-17.63s-25.97,0-25.97,0h-25.97v17.63s12.11,14.63,12.11,35.25-17.34,39.46-11.2,73.99c6.14,34.53,16.64,36.85,25.06,36.85Z"/>
  </g>
  <g id="Layer_18" data-name="Layer 18">
    <g>
      <g>
        <rect class="cls-3" x="223.2" y="308.54" width="33.86" height="22.5"/>
        <rect class="cls-3" x="22.81" y="83.55" width="33.86" height="22.5"/>
        <polygon class="cls-3" points="257.06 308.54 56.68 83.55 22.81 83.55 223.2 308.54 257.06 308.54"/>
        <polygon class="cls-1" points="223.2 331.04 22.81 106.05 22.81 83.55 223.2 308.54 223.2 331.04"/>
      </g>
      <path class="cls-2" d="M226.86,301.58v-76.77s-.08,11.41,18.88,11.18-3.26-11.18-3.26-11.18v76.77"/>
      <path class="cls-2" d="M36.18,87.69V14.62s-7.25-9.15,0-9.15,14.51,9.15,14.51,9.15v73.06"/>
    </g>
  </g>
</svg>