<?xml version="1.0" encoding="UTF-8"?>
<svg id="Layer_20" data-name="Layer 20" xmlns="http://www.w3.org/2000/svg" viewBox="0 0 826.67 414.29">
  <defs>
    <style>
      .cls-1, .cls-2, .cls-3, .cls-4, .cls-5 {
        stroke-linejoin: round;
      }

      .cls-1, .cls-2, .cls-4, .cls-5 {
        stroke: #000;
      }

      .cls-1, .cls-5 {
        stroke-width: 2.02px;
      }

      .cls-2, .cls-3, .cls-4 {
        stroke-width: 1.91px;
      }

      .cls-3 {
        fill: none;
        stroke: #fff;
        stroke-linecap: round;
      }

      .cls-4, .cls-5 {
        fill: #f4f1e6;
      }
    </style>
  </defs>
  <g>
    <ellipse class="cls-4" cx="182.37" cy="178.2" rx="41.1" ry="53.48"/>
    <ellipse class="cls-4" cx="270.39" cy="108.44" rx="41.1" ry="53.48"/>
    <path class="cls-4" d="M278.99,69.92c-17.16,0-31.07,18.11-31.07,40.44s13.91,40.44,31.07,40.44c0,0,23.12-9.55,60.19-9.55s66.15,9.55,66.15,9.55v-80.88s-28.53,9.55-66.15,9.55-60.19-9.55-60.19-9.55Z"/>
    <path class="cls-4" d="M190.97,139.68c-17.16,0-31.07,18.11-31.07,40.44s13.91,40.44,31.07,40.44c0,0,23.12-9.55,60.19-9.55s66.15,9.55,66.15,9.55v-80.88s-28.53,9.55-66.15,9.55-60.19-9.55-60.19-9.55Z"/>
  </g>
  <g>
    <g>
      <polygon class="cls-5" points="367.15 179.27 219.01 290.56 219.01 136.93 367.15 25.64 367.15 179.27"/>
      <g>
        <polygon class="cls-4" points="370.07 181.61 230.2 286.7 230.2 141.64 370.07 36.55 370.07 181.61"/>
        <polygon class="cls-4" points="616.54 235.05 394.48 401.89 394.48 171.59 616.54 4.75 616.54 235.05"/>
        <polygon class="cls-4" points="627.39 242.69 405.33 409.53 405.33 179.24 627.39 12.4 627.39 242.69"/>
        <polygon class="cls-4" points="604.97 232.47 427.75 365.62 427.75 191.38 604.97 58.23 604.97 232.47"/>
        <polygon class="cls-2" points="616.54 4.75 627.39 12.4 405.33 179.24 394.48 171.59 616.54 4.75"/>
        <polygon class="cls-2" points="405.33 409.53 394.48 401.89 394.48 171.59 405.33 179.24 405.33 409.53"/>
        <polygon class="cls-4" points="616.54 4.75 370.07 36.55 230.2 141.64 394.48 171.59 616.54 4.75"/>
        <polygon class="cls-4" points="551.08 33.02 407.24 54.04 314.77 123.52 404.27 143.32 551.08 33.02"/>
        <polygon class="cls-4" points="551.08 24.9 407.24 45.92 314.77 115.39 404.27 135.2 551.08 24.9"/>
        <polygon class="cls-4" points="394.48 401.89 230.2 286.7 230.2 141.64 394.48 171.59 394.48 401.89"/>
        <polygon class="cls-2" points="551.08 24.9 551.08 33.02 404.27 143.32 404.27 135.2 551.08 24.9"/>
        <polygon class="cls-2" points="314.77 115.39 314.77 123.52 404.27 143.32 404.27 135.2 314.77 115.39"/>
      </g>
      <polygon class="cls-1" points="370.07 36.55 367.15 25.64 219.01 136.93 230.2 141.64 370.07 36.55"/>
      <polygon class="cls-1" points="230.2 286.7 219.01 290.56 219.01 136.93 230.2 141.64 230.2 286.7"/>
    </g>
    <ellipse class="cls-2" cx="609.63" cy="43.84" rx="6.56" ry="4.26" transform="translate(453.82 634.85) rotate(-79.34)"/>
    <ellipse class="cls-2" cx="609.63" cy="240.28" rx="6.56" ry="4.26" transform="translate(260.77 794.97) rotate(-79.34)"/>
    <ellipse class="cls-2" cx="421.46" cy="183.82" rx="6.56" ry="4.26" transform="translate(162.88 564.02) rotate(-79.34)"/>
    <ellipse class="cls-2" cx="421.46" cy="379" rx="6.56" ry="4.26" transform="translate(-28.94 723.12) rotate(-79.34)"/>
  </g>
  <g>
    <path class="cls-4" d="M254.34,167.61c-1.89-5.1-6.88-7.95-11.16-6.37-.82.3-1.56.75-2.19,1.31l-.04-.05-39.86,28.23,11.29,15.95,39.86-28.23-.04-.05c2.68-2.35,3.65-6.67,2.13-10.79Z"/>
    <ellipse class="cls-2" cx="215.97" cy="193.44" rx="25.44" ry="30.36" transform="translate(-67.78 133.9) rotate(-30)"/>
    <ellipse class="cls-4" cx="209.72" cy="197.04" rx="25.44" ry="30.36" transform="translate(-70.42 131.26) rotate(-30)"/>
    <ellipse class="cls-2" cx="209.72" cy="197.04" rx="8.25" ry="9.85" transform="translate(-70.42 131.26) rotate(-30)"/>
  </g>
  <line class="cls-3" x1="230.2" y1="141.64" x2="219.01" y2="136.93"/>
  <line class="cls-3" x1="405.33" y1="179.24" x2="394.48" y2="171.59"/>
  <line class="cls-3" x1="404.27" y1="143.32" x2="404.27" y2="135.2"/>
</svg>