<?xml version="1.0" encoding="UTF-8"?>
<svg id="Layer_30" data-name="Layer 30" xmlns="http://www.w3.org/2000/svg" viewBox="0 0 826.67 414.29">
  <defs>
    <style>
      .cls-1, .cls-2, .cls-3, .cls-4 {
        stroke-linejoin: round;
      }

      .cls-1, .cls-2, .cls-3, .cls-4, .cls-5, .cls-6 {
        stroke: #000;
        stroke-width: 1.28px;
      }

      .cls-1, .cls-2, .cls-7, .cls-6 {
        fill: #f4f1e6;
      }

      .cls-2, .cls-3 {
        stroke-linecap: round;
      }

      .cls-5, .cls-6 {
        stroke-miterlimit: 10;
      }

      .cls-7 {
        stroke-width: 0px;
      }
    </style>
  </defs>
  <g>
    <path class="cls-6" d="M130.15,204.46s-86.42-60.47-92.19-80.09c-5.76-19.62,32.91-37.62,115.05-28.3,68.54,7.77,130.59,46.21,149.26,58.73l68.29-19.72S232.53,32.62,69.94,45.32c-162.59,12.7,60.12,159.2,60.12,159.2l1.08-.31-.99.26Z"/>
    <path class="cls-6" d="M133.4,322.57l-10.75-7.07s-12.51-6.44-17.7-18.42c0,0-3.35-9.47-3.35-45.31s4.51-51,4.51-51c2.28-11.89,9.82-18.83,20.76-21.77,0,0,81.18-13.27,119.79-23.71,38.6-10.44,97.94-34.63,97.94-34.63,7.85-2.82,18.15,4.81,18.15,4.81l14.45,9.51"/>
    <path class="cls-6" d="M131.14,204.21s-62.2-40.37-99.03-82.35c-36.83-41.98-10.22-63.59-10.22-63.59,0,0-40.88,25.23-1.95,113.32,38.93,88.09,104.8,122.71,104.8,122.71l6.4-90.08Z"/>
    <path class="cls-6" d="M384.86,140.25s-17.74-14.04-23.6-8.91c0,0-49.49,27.73-92.48,40.09-42.99,12.37-125.25,18.25-125.25,18.25-10.94,2.93-17.27,11.01-20.33,22.41,0,0-4.94,16.92-4.94,47.8s2.86,45.74,2.86,45.74c0,10.94,20.39,22.37,20.39,22.37l42.17,27.55,240.17-189.46-38.99-25.84Z"/>
    <path class="cls-5" d="M410.9,164.62s-51.79,22.37-97.94,34.63c-46.15,12.26-119.79,23.71-119.79,23.71-10.94,2.93-16.76,9.13-19.86,20.6,0,0-5.41,14.26-5.41,47.54s2.41,45.01,2.41,45.01c0,10.94,17.9,22.84,17.9,22.84l10.82,6.82,242.53-187.66c-17.3-11.15-19.73-16.42-30.67-13.49Z"/>
    <path class="cls-6" d="M432.51,311.02l-217.73,58.34c-10.94,2.93-19.81-3.56-19.81-14.5v-92.58c0-10.94,8.87-22.18,19.81-25.11l217.73-58.34c10.94-2.93,19.81,3.56,19.81,14.5v92.58c0,10.94-8.87,22.18-19.81,25.11Z"/>
    <g>
      <path class="cls-3" d="M286.92,170.27c-3.48-5.2-9.38-7.65-16.07-5.86-6.69,1.79-12.59,7.41-16.07,14.47l5.5,2.46,3.45-4.86,23.19-6.21Z"/>
      <path class="cls-2" d="M292.42,172.73c-3.48-5.2-9.38-7.65-16.07-5.86-6.69,1.79-12.59,7.41-16.07,14.47l32.15-8.61Z"/>
    </g>
    <path class="cls-2" d="M143.89,298.15l-4.5-1.61c-6.99-2.5-12.67-12.09-12.67-21.41v-22.64c0-9.33,5.67-14.86,12.67-12.36l4.5,1.61c6.99,2.5,12.67,12.09,12.67,21.41v22.64c0,9.33-5.67,14.86-12.67,12.36Z"/>
    <path class="cls-3" d="M62.93,87.48l-5.47-1.7c-3.53-1.09-7.73.28-11.26,3.67l-5.47,5.27c-5.61,5.4-12.59,3.16-12.95-4.42-.01-.22-.02-.45-.02-.67v-12.31c0-6.37,4.24-12.93,9.48-14.63l29.18-9.52c5.23-1.71,9.48,2.07,9.48,8.45v12.31c0,.23,0,.46-.02.68-.37,7.82-7.34,14.61-12.95,12.87Z"/>
    <ellipse class="cls-3" cx="260.6" cy="339.03" rx="11.03" ry="7.97" transform="translate(-130.99 510.84) rotate(-76.14)"/>
    <ellipse class="cls-3" cx="404.7" cy="299.29" rx="11.03" ry="7.97" transform="translate(17.18 620.53) rotate(-76.14)"/>
  </g>
  <rect class="cls-6" x="561" y="269.79" width="53.17" height="95.85" rx="23.55" ry="23.55" transform="translate(-77.31 381.8) rotate(-33.91)"/>
  <path class="cls-6" d="M564.26,271.78l-4.72.53c-3.03.34-6.1.34-9.13,0l-4.72-.53c-2.69,0-4.88-2.18-4.88-4.88h0c0-2.69,2.18-4.88,4.88-4.88h18.58c2.69,0,4.88,2.18,4.88,4.88h0c0,2.69-2.18,4.88-4.88,4.88Z"/>
  <path class="cls-1" d="M630.07,220.7c0-39.76-33.17-71.77-73.34-69.86-35.82,1.7-64.83,30.75-66.47,66.57-1.09,23.85,9.77,45.2,27.09,58.61h-.02s30.07,34.07,30.07,34.07c6.78,7.69,18.75,7.75,25.62.15l34-37.64h0c14.16-12.8,23.06-31.31,23.06-51.9ZM554.97,272.56c-11.17,0-21.55-3.33-30.23-9.04-6.74-9.15-10.73-20.45-10.73-32.69,0-30.48,24.71-55.19,55.2-55.19,11.01,0,21.26,3.24,29.87,8.79,6.9,9.2,10.99,20.64,10.99,33.03,0,30.43-24.67,55.1-55.1,55.1Z"/>
  <path class="cls-4" d="M549.49,281.69h0c6.95-2.22,14.31-2.22,21.26,0h0c3.78,1.21,5.75,5.93,4.18,10.02l-4.65,12.13c-4.79,8.34-15.54,8.34-20.33,0l-4.65-12.13c-1.57-4.09.4-8.81,4.18-10.02Z"/>
  <path class="cls-1" d="M546.89,280.23h0c6.95-2.22,14.31-2.22,21.26,0h0c3.78,1.21,5.75,5.93,4.18,10.02l-4.65,12.13c-4.79,8.34-15.54,8.34-20.33,0l-4.65-12.13c-1.57-4.09.4-8.81,4.18-10.02Z"/>
  <path class="cls-4" d="M612.43,320.59l-10.65,10.18c-2.15,2.05-5.45,1.33-7.64-1.36h0c-2.19-2.69-2.88-6.9-1.37-9.74l7.5-14.05c3.3-6.18,9.93-8.22,14.05-3.15h0c4.12,5.07,2.8,13.64-1.89,18.12Z"/>
  <rect class="cls-1" x="551.9" y="255.88" width="6.14" height="6.14"/>
  <rect class="cls-7" x="600.23" y="303.56" width="15.99" height="13.07" rx="6.38" ry="6.38" transform="translate(35.57 681.78) rotate(-60)"/>
  <rect class="cls-1" x="547.14" y="252.09" width="15.67" height="5.05" rx="2.52" ry="2.52"/>
  <path class="cls-1" d="M514.01,230.87c0-30.48,24.71-55.19,55.2-55.19,11.01,0,21.26,3.24,29.87,8.79-10.05-13.4-26.07-22.08-44.11-22.08-30.43,0-55.1,24.67-55.1,55.1,0,19.27,9.9,36.21,24.87,46.06-6.74-9.15-10.73-20.45-10.73-32.69Z"/>
  <g>
    <path class="cls-1" d="M770.16,171.75l-51.4,10.36c-8.69,1.75-15.29,8.04-17.89,15.89l-36.8,49.71c-12.06,16.3-10.63,37.81,3.21,48.05h0c13.84,10.24,34.83,5.33,46.9-10.97l43.38-58.61,22.66-4.57c12.88-2.6,21.22-15.14,18.62-28.02l-.65-3.24c-2.6-12.88-15.14-21.22-28.02-18.62Z"/>
    <path class="cls-1" d="M780.39,86.6c-37.21-27.54-79.7-33.22-94.9-12.69s2.64,59.52,39.85,87.06c37.21,27.54,79.7,33.22,94.9,12.69,15.2-20.54-2.64-59.52-39.85-87.06ZM809.3,146.62c-6.03,8.15-32.13-.95-58.29-20.32-26.16-19.37-42.49-41.67-36.46-49.82,6.03-8.15,32.13.95,58.29,20.32,26.16,19.37,42.49,41.67,36.46,49.82Z"/>
    <rect class="cls-1" x="692.91" y="215.86" width="46.48" height="27.7" rx="13.85" ry="13.85" transform="translate(81.09 -173.21) rotate(14.61)"/>
    <path class="cls-4" d="M719.07,216.17l9.74,2.54c7.4,1.93,11.84,9.49,9.91,16.89h0c-1.93,7.4-9.49,11.84-16.89,9.91l-9.89-2.58,7.14-26.76Z"/>
    <g>
      <path class="cls-1" d="M804.83,214.06l5.44-34.46c.59-3.76-2.74-6.95-6.47-6.2l-11.48,2.31c-25.45,10.76-18.09,41.1,12.51,38.35Z"/>
      <path class="cls-4" d="M792.43,219.66l12.4-5.6c-10.95-1.46-19.67-7.93-21.53-17.13-1.56-7.74,2.13-15.6,9.02-21.22-13.35,4.65-21.92,15.99-19.68,27.1,1.75,8.7,9.67,14.96,19.79,16.85Z"/>
    </g>
  </g>
</svg>