<?xml version="1.0" encoding="UTF-8"?>
<svg id="Layer_10" data-name="Layer 10" xmlns="http://www.w3.org/2000/svg" viewBox="0 0 826.67 414.29">
  <defs>
    <style>
      .cls-1, .cls-2, .cls-3, .cls-4, .cls-5, .cls-6, .cls-7, .cls-8 {
        stroke-linejoin: round;
      }

      .cls-1, .cls-3, .cls-5, .cls-6, .cls-7, .cls-8 {
        stroke-width: 1.2px;
      }

      .cls-1, .cls-4, .cls-6, .cls-7, .cls-8 {
        stroke: #000;
      }

      .cls-2 {
        stroke-width: 1.2px;
      }

      .cls-2, .cls-3 {
        stroke-linecap: round;
      }

      .cls-2, .cls-3, .cls-5 {
        fill: none;
        stroke: #fff;
      }

      .cls-4 {
        stroke-width: 1.38px;
      }

      .cls-4, .cls-8 {
        fill: #f4f1e6;
      }

      .cls-6 {
        fill: blue;
      }

      .cls-7 {
        fill: red;
      }
    </style>
  </defs>
  <g>
    <polygon class="cls-4" points="729.56 261.01 97.11 261.01 .76 356.21 825.91 356.21 729.56 261.01"/>
    <rect class="cls-1" x=".76" y="356.21" width="825.15" height="34.02"/>
  </g>
  <g>
    <g>
      <polygon class="cls-1" points="413.33 74.25 405.6 80.27 405.6 287.62 413.33 281.6 413.33 74.25"/>
      <polygon class="cls-8" points="405.2 287.62 317.79 239.44 317.79 32.1 405.2 80.27 405.2 287.62"/>
      <polygon class="cls-8" points="396.15 261.01 326.84 222.81 326.84 58.4 396.15 96.6 396.15 261.01"/>
      <polygon class="cls-6" points="389.93 242.82 333.07 211.48 333.07 76.6 389.93 107.94 389.93 242.82"/>
      <polygon class="cls-8" points="405.2 80.27 413.33 74.25 326.2 27.51 317.79 32.1 405.2 80.27"/>
      <line class="cls-8" x1="389.93" y1="242.82" x2="333.07" y2="76.6"/>
      <line class="cls-8" x1="333.07" y1="211.48" x2="389.93" y2="107.94"/>
    </g>
    <g>
      <polygon class="cls-1" points="413.33 74.25 421.07 80.27 421.07 287.62 413.33 281.6 413.33 74.25"/>
      <polygon class="cls-8" points="421.47 287.62 508.88 239.44 508.88 32.1 421.47 80.27 421.47 287.62"/>
      <polygon class="cls-8" points="430.52 261.01 499.82 222.81 499.82 58.4 430.52 96.6 430.52 261.01"/>
      <polygon class="cls-7" points="436.74 242.82 493.6 211.48 493.6 76.6 436.74 107.94 436.74 242.82"/>
      <polygon class="cls-8" points="421.47 80.27 413.33 74.25 500.47 27.51 508.88 32.1 421.47 80.27"/>
      <line class="cls-8" x1="436.74" y1="242.82" x2="493.6" y2="76.6"/>
      <line class="cls-8" x1="493.6" y1="211.48" x2="436.74" y2="107.94"/>
    </g>
  </g>
  <polygon class="cls-8" points="431.47 356.58 431.82 356.58 431.82 296.19 394.84 296.19 394.84 356.58 382.8 371.17 443.52 371.17 431.47 356.58"/>
  <ellipse class="cls-8" cx="413.33" cy="295.89" rx="18.49" ry="9.07"/>
  <ellipse class="cls-8" cx="413.33" cy="320.2" rx="11.14" ry="5.46"/>
  <path class="cls-8" d="M413.24,162.17s-15.57,4.56-23.75,4.56-23.75-4.56-23.75-4.56v-7.32s15.63,4.56,23.75,4.56,23.75-4.56,23.75-4.56v7.32Z"/>
  <g>
    <circle class="cls-8" cx="365.75" cy="160.79" r="21.41"/>
    <circle class="cls-8" cx="365.48" cy="160.79" r="15.27"/>
  </g>
  <path class="cls-8" d="M462.91,162.17s-15.57,4.56-23.75,4.56-23.75-4.56-23.75-4.56v-7.32s15.63,4.56,23.75,4.56,23.75-4.56,23.75-4.56v7.32Z"/>
  <g>
    <circle class="cls-8" cx="460.57" cy="160.79" r="21.41"/>
    <circle class="cls-8" cx="460.31" cy="160.79" r="15.27"/>
  </g>
  <line class="cls-2" x1="413.33" y1="75.21" x2="413.33" y2="145.48"/>
  <path class="cls-8" d="M413.33,145.48c7.47,0,13.52,12.89,13.52,28.8,0,0-5.01,28.8-5.51,49.83-.5,21.03-1.5,59.59,2.75,71.1,0,0-5.26,4.8-10.77,4.65-5.51.14-10.77-4.65-10.77-4.65,4.26-11.52,3.25-50.07,2.75-71.1-.5-21.03-5.51-49.83-5.51-49.83,0-15.9,6.05-28.8,13.52-28.8Z"/>
  <rect class="cls-8" x="698.42" y="26.56" width="5.85" height="241.16" transform="translate(1402.7 294.27) rotate(-180)"/>
  <g>
    <rect class="cls-1" x="776.53" y="320.46" width="25.29" height="25.29" transform="translate(1578.35 666.21) rotate(-180)"/>
    <rect class="cls-8" x="691.71" y="252.07" width="18.07" height="18.07" transform="translate(1401.5 522.21) rotate(-180)"/>
    <polygon class="cls-1" points="776.53 345.75 691.71 270.14 691.71 252.07 776.53 320.46 776.53 345.75"/>
    <polygon class="cls-8" points="801.82 320.46 709.78 252.07 691.71 252.07 776.53 320.46 801.82 320.46"/>
  </g>
  <g>
    <rect class="cls-1" x="753.91" y="36.95" width="4.55" height="41.73" transform="translate(1512.37 115.63) rotate(-180)"/>
    <rect class="cls-8" x="738.66" y="24.07" width="4.55" height="39.33" transform="translate(1481.88 87.46) rotate(-180)"/>
    <polygon class="cls-8" points="753.91 36.95 738.66 24.07 738.66 63.39 753.91 78.68 753.91 36.95"/>
    <polygon class="cls-8" points="758.46 36.95 743.21 24.07 738.66 24.07 753.91 36.95 758.46 36.95"/>
  </g>
  <rect class="cls-1" x="786.25" y="85.93" width="5.85" height="247.18" transform="translate(1578.35 419.04) rotate(-180)"/>
  <polygon class="cls-8" points="698.42 252.07 786.25 320.46 786.25 85.93 698.42 26.56 698.42 252.07"/>
  <polygon class="cls-7" points="709.77 233.5 774.9 284.22 774.9 110.28 709.77 66.24 709.77 233.5"/>
  <polygon class="cls-8" points="698.42 26.56 786.25 85.93 792.1 85.93 704.28 26.56 698.42 26.56"/>
  <line class="cls-8" x1="774.9" y1="284.22" x2="709.77" y2="66.24"/>
  <line class="cls-8" x1="709.77" y1="233.5" x2="774.9" y2="110.28"/>
  <polyline class="cls-5" points="786.25 320.46 786.25 333.11 792.1 333.11 792.1 320.46"/>
  <line class="cls-3" x1="776.53" y1="320.46" x2="776.53" y2="345.75"/>
  <rect class="cls-8" x="122.61" y="26.56" width="5.85" height="241.16"/>
  <g>
    <rect class="cls-1" x="25.06" y="320.46" width="25.29" height="25.29"/>
    <rect class="cls-8" x="117.1" y="252.07" width="18.07" height="18.07"/>
    <polygon class="cls-1" points="50.36 345.75 135.17 270.14 135.17 252.07 50.36 320.46 50.36 345.75"/>
    <polygon class="cls-8" points="25.06 320.46 117.1 252.07 135.17 252.07 50.36 320.46 25.06 320.46"/>
  </g>
  <g>
    <rect class="cls-1" x="68.42" y="36.95" width="4.55" height="41.73"/>
    <rect class="cls-8" x="83.67" y="24.07" width="4.55" height="39.33"/>
    <polygon class="cls-8" points="72.97 36.95 88.22 24.07 88.22 63.39 72.97 78.68 72.97 36.95"/>
    <polygon class="cls-8" points="68.42 36.95 83.67 24.07 88.22 24.07 72.97 36.95 68.42 36.95"/>
  </g>
  <rect class="cls-1" x="34.78" y="85.93" width="5.85" height="247.18"/>
  <polygon class="cls-8" points="128.46 252.07 40.64 320.46 40.64 85.93 128.46 26.56 128.46 252.07"/>
  <polygon class="cls-6" points="117.12 233.5 51.98 284.22 51.98 110.28 117.12 66.24 117.12 233.5"/>
  <polygon class="cls-8" points="128.46 26.56 40.64 85.93 34.78 85.93 122.61 26.56 128.46 26.56"/>
  <line class="cls-8" x1="51.98" y1="284.22" x2="117.12" y2="66.24"/>
  <line class="cls-8" x1="117.12" y1="233.5" x2="51.98" y2="110.28"/>
  <polyline class="cls-5" points="34.78 320.46 34.78 333.11 40.64 333.11 40.64 320.46"/>
  <line class="cls-3" x1="50.36" y1="320.46" x2="50.36" y2="345.75"/>
</svg>