<?xml version="1.0" encoding="UTF-8"?>
<svg id="Layer_2" data-name="Layer 2" xmlns="http://www.w3.org/2000/svg" viewBox="0 0 852 852">
  <defs>
    <style>
      .cls-1, .cls-2 {
        stroke-width: 0px;
      }

      .cls-2 {
        fill: #666;
      }
    </style>
  </defs>
  <g id="Layer_3" data-name="Layer 3">
    <g>
      <rect class="cls-2" x="2" y="451" width="848" height="399"/>
      <path class="cls-1" d="M848,453v395H4v-395h844M852,449H0v403h852v-403h0Z"/>
    </g>
    <g>
      <g>
        <path class="cls-2" d="M112,322c-12.13,0-22-9.87-22-22s9.87-22,22-22h16v-75.73c0-17.24,14.03-31.27,31.27-31.27h4.96c7.3,0,14.4,2.6,19.99,7.23,5.8-29.46,31.96-51.23,62.35-51.23h9.87c35.05,0,63.57,28.52,63.57,63.57v27.44c2.97-1.63,6.33-2.51,9.75-2.51,11.17,0,20.25,9.08,20.25,20.25v42.25h16c12.13,0,22,9.87,22,22s-9.87,22-22,22H112Z"/>
        <path class="cls-1" d="M256.43,129c34,0,61.57,27.56,61.57,61.57v31.23c3.18-2.68,7.27-4.3,11.75-4.3,10.08,0,18.25,8.17,18.25,18.25v44.25h18c11.05,0,20,8.95,20,20h0c0,11.05-8.95,20-20,20H112c-11.05,0-20-8.95-20-20h0c0-11.05,8.95-20,20-20h18v-77.73c0-16.17,13.11-29.27,29.27-29.27h4.96c8.42,0,16.01,3.56,21.35,9.25,4.06-30.07,29.81-53.25,60.99-53.25h9.87M256.43,125h-9.87c-15.96,0-31.35,5.81-43.31,16.35-10.07,8.87-17.13,20.55-20.32,33.42-5.48-3.72-12.01-5.77-18.71-5.77h-4.96c-18.35,0-33.27,14.93-33.27,33.27v73.73h-14c-13.23,0-24,10.77-24,24s10.77,24,24,24h254c13.23,0,24-10.77,24-24s-10.77-24-24-24h-14v-40.25c0-12.27-9.98-22.25-22.25-22.25-2.66,0-5.29.48-7.75,1.4v-24.33c0-36.15-29.41-65.57-65.57-65.57h0Z"/>
      </g>
      <g>
        <path class="cls-2" d="M239.5,589c-12.89,0-23.16-5.85-24.38-13.58h-.1s-.02-1.41-.02-1.55v-255.88h49v257.42h-.12c-1.22,7.73-11.49,13.58-24.38,13.58Z"/>
        <path class="cls-1" d="M262,320v253.42h-.02c0,.15.02.3.02.45,0,7.25-10.07,13.12-22.5,13.12s-22.5-5.88-22.5-13.12c0-.15.01-.3.02-.45h-.02v-253.42h45M266,316h-53v261.42h.55c2.46,7.84,12.98,13.58,25.95,13.58s23.49-5.73,25.95-13.58h.53l.02-3.25c0-.1,0-.2,0-.29,0-.05,0-.1,0-.14v-.31s0-253.42,0-253.42v-4h0Z"/>
      </g>
    </g>
    <g>
      <path class="cls-2" d="M478.5,688c-64.14,0-124.46-6.47-169.85-18.22-26.76-6.93-71.65-22.08-71.65-45.78s44.89-38.85,71.65-45.78c45.39-11.75,105.72-18.22,169.85-18.22s124.46,6.47,169.85,18.22c26.76,6.93,71.65,22.08,71.65,45.78s-44.89,38.85-71.65,45.78c-45.39,11.75-105.72,18.22-169.85,18.22Z"/>
      <path class="cls-1" d="M478.5,562c132.27,0,239.5,27.76,239.5,62s-107.23,62-239.5,62-239.5-27.76-239.5-62,107.23-62,239.5-62M478.5,558c-64.3,0-124.8,6.49-170.35,18.29-22.38,5.79-40.01,12.58-52.41,20.17-13.76,8.42-20.73,17.69-20.73,27.54s6.98,19.12,20.73,27.54c12.4,7.59,30.03,14.37,52.41,20.17,45.55,11.79,106.05,18.29,170.35,18.29s124.8-6.49,170.35-18.29c22.38-5.79,40.01-12.58,52.41-20.17,13.76-8.42,20.73-17.69,20.73-27.54s-6.98-19.12-20.73-27.54c-12.4-7.59-30.03-14.37-52.41-20.17-45.55-11.79-106.05-18.29-170.35-18.29h0Z"/>
    </g>
    <path class="cls-1" d="M848,4v844H4V4h844M852,0H0v852h852V0h0Z"/>
  </g>
</svg>