<?xml version="1.0" encoding="UTF-8"?>
<svg id="Layer_2" data-name="Layer 2" xmlns="http://www.w3.org/2000/svg" viewBox="0 0 852 852">
  <defs>
    <style>
      .cls-1 {
        stroke-width: 0px;
      }
    </style>
  </defs>
  <g id="Layer_4" data-name="Layer 4">
    <g>
      <path class="cls-1" d="M486.8,850l-.29-1.66c-1-5.77-1.51-11.75-1.51-17.77,0-43.09,25.71-78.14,57.31-78.14,15.92,0,31.13,9.13,41.89,24.8-.38-6.02-.57-12.33-.57-18.86,0-73.37,24.78-142.36,69.78-194.26,45.07-51.98,105.01-80.61,168.78-80.61,8.74,0,17.51.55,26.06,1.63l1.75.22v364.65h-363.2Z"/>
      <path class="cls-1" d="M822.19,485.5c8.72,0,17.33.54,25.81,1.61v360.89h-359.52c-.97-5.59-1.48-11.43-1.48-17.43,0-42.05,24.76-76.14,55.31-76.14,18.28,0,34.49,12.22,44.56,31.04-.82-8.36-1.24-17.37-1.24-27.1,0-150.7,105.91-272.87,236.56-272.87M822.19,481.5c-32.55,0-64.12,7.35-93.83,21.85-28.66,13.98-54.38,33.98-76.46,59.45-22.04,25.43-39.35,55.03-51.43,87.98-12.5,34.08-18.83,70.28-18.83,107.59,0,4.25.08,8.41.24,12.46-10.77-12.98-24.86-20.4-39.56-20.4-16.09,0-31.13,8.51-42.35,23.95-10.94,15.06-16.96,35.01-16.96,56.19,0,6.13.52,12.23,1.54,18.11l.58,3.32h366.89v-368.42l-3.5-.44c-8.63-1.09-17.48-1.64-26.31-1.64h0Z"/>
    </g>
    <g>
      <path class="cls-1" d="M2,818v-282.69l3.07,1.94c32.02,20.27,58.01,51.54,73.49,88.3,13.44-17.15,30.53-26.55,48.44-26.55,40.8,0,74,48.9,74,109,0,.38,0,.77,0,1.15,6.02-3.91,12.69-5.96,19.5-5.96,23.99,0,43.5,25.3,43.5,56.4,0,15.03-4.49,29.16-12.66,39.8-7.61,11.66-20.44,18.61-34.33,18.61H2Z"/>
      <path class="cls-1" d="M4,538.94c32.65,20.67,58.75,52.44,74.04,90.62,12.85-17.72,30.05-28.56,48.96-28.56,39.76,0,72,47.91,72,107,0,1.72-.03,3.42-.08,5.12,6.29-5.03,13.67-7.93,21.58-7.93,22.92,0,41.5,24.35,41.5,54.4,0,15.11-4.7,28.78-12.29,38.64-6.95,10.69-19,17.77-32.7,17.77H4v-277.06M0,531.67v288.33h217.01c14.55,0,27.98-7.27,35.97-19.46,8.4-10.98,13.02-25.51,13.02-40.95s-4.61-29.93-12.97-40.89c-8.61-11.29-20.16-17.51-32.53-17.51-6.06,0-12,1.53-17.52,4.47-.4-28.49-8.09-55.24-21.76-75.55-14.37-21.35-33.63-33.11-54.23-33.11-17.61,0-34.42,8.72-47.91,24.73-7.42-16.9-16.98-32.54-28.46-46.58-12.87-15.73-27.84-29.05-44.49-39.59l-6.14-3.89h0Z"/>
    </g>
    <path class="cls-1" d="M848,4v844H4V4h844M852,0H0v852h852V0h0Z"/>
  </g>
</svg>