<?xml version="1.0" encoding="UTF-8"?>
<svg id="Layer_2" data-name="Layer 2" xmlns="http://www.w3.org/2000/svg" viewBox="0 0 852 852">
  <defs>
    <style>
      .cls-1, .cls-2 {
        stroke-width: 0px;
      }

      .cls-2 {
        fill: #b3b3b3;
      }
    </style>
  </defs>
  <g id="Layer_5" data-name="Layer 5">
    <g>
      <path class="cls-2" d="M2,850v-399h311.04c.21-8.9,1.36-17.09,3.44-24.4,6.36-22.43,21.41-37.57,46-46.29,24.65-8.74,56.27-9.86,81.07-9.86h111.32c15.83,0,28.71-12.88,28.71-28.71v-40c0-36.58,4.07-65.83,12.43-89.42,7.71-21.75,18.91-38.17,34.24-50.17,27.7-21.7,64.83-26.14,112.07-26.14,59.38,0,107.68,48.31,107.68,107.68v606.32H2Z"/>
      <path class="cls-1" d="M742.32,138c58.36,0,105.68,47.32,105.68,105.68v604.32H4v-395h311.01c.07-9.72,1.24-18.29,3.39-25.85,13.32-46.94,64.29-54.7,125.15-54.7h111.32c16.96,0,30.71-13.75,30.71-30.71v-40c0-149.74,70.17-163.74,156.74-163.74M742.32,134c-47.65,0-85.15,4.52-113.3,26.57-15.64,12.25-27.05,28.96-34.89,51.08-8.44,23.81-12.55,53.28-12.55,90.09v40c0,14.73-11.98,26.71-26.71,26.71h-111.32c-47.51,0-68.64,5.33-81.74,9.98-25.25,8.95-40.7,24.53-47.26,47.63-1.97,6.92-3.13,14.63-3.45,22.94H0v403h852V243.68c0-60.48-49.2-109.68-109.68-109.68h0Z"/>
    </g>
    <g>
      <path class="cls-2" d="M4,451l-2-2V173.15l1.88-2c1.66-.1,3.32-.15,4.95-.15,35.85,0,72.78,3.17,100.04,26.19,29.68,25.06,44.11,70.71,44.11,139.55,0,37.89,26.15,68.71,58.28,68.71h26.7c46.72,0,65.15,7.7,78.12,16.02l.84,2.23c-2.13,7.5-3.24,16.01-3.31,25.32l-2,1.99H4Z"/>
      <path class="cls-1" d="M8.82,173c36.9,0,72.44,3.5,98.75,25.72,26.32,22.22,43.4,63.15,43.4,138.02,0,39.05,26.99,70.71,60.28,70.71h26.7c31.58,0,57.04,2.87,77.04,15.7-2.15,7.56-3.32,16.13-3.39,25.85H4V173.15c1.63-.1,3.24-.15,4.82-.15M8.82,169c-1.66,0-3.37.05-5.07.16l-3.75,3.99v275.85l4,4h307.61l4-3.97c.07-9.12,1.15-17.46,3.23-24.79l-1.69-4.46c-22.37-14.35-51.28-16.33-79.2-16.33h-26.7c-31.03,0-56.28-29.93-56.28-66.71,0-69.46-14.66-115.61-44.82-141.08-27.75-23.43-65.11-26.66-101.33-26.66h0Z"/>
    </g>
    <path class="cls-1" d="M848,4v844H4V4h844M852,0H0v852h852V0h0Z"/>
  </g>
</svg>