<?xml version="1.0" encoding="UTF-8"?>
<svg id="Layer_2" data-name="Layer 2" xmlns="http://www.w3.org/2000/svg" viewBox="0 0 852 852">
  <defs>
    <style>
      .cls-1 {
        stroke-miterlimit: 10;
      }

      .cls-1, .cls-2 {
        fill: none;
        stroke: blue;
        stroke-width: 4px;
      }

      .cls-2 {
        stroke-linejoin: bevel;
      }

      .cls-3 {
        fill: blue;
        stroke-width: 0px;
      }
    </style>
  </defs>
  <g id="Layer_6_copy" data-name="Layer 6 copy">
    <path class="cls-1" d="M264.79,452h51.22c.07-9.72,1.24-17.29,3.39-24.85,13.32-46.94,64.29-54.7,125.15-54.7h111.32c16.96,0,30.71-13.75,30.71-30.71v-40c0-149.74,70.17-163.74,156.74-163.74,58.36,0,105.68,47.32,105.68,105.68"/>
    <path class="cls-2" d="M214.11,451H2V175.15c1.63-.1,3.24-.15,4.82-.15,36.9,0,72.44,3.5,98.75,25.72,7.97,6.73,15.1,15.19,21.16,25.78"/>
    <path class="cls-2" d="M264.51,411.1c21.42,1.41,38.49,5.43,53.49,15.05-2.15,7.56-3.32,16.13-3.39,25.85h-49.61"/>
    <path class="cls-2" d="M150.77,322.78c.14,4.52.21,9.17.21,13.96,0,39.05,26.99,70.71,60.28,70.71h3.91"/>
    <path class="cls-3" d="M848,4v844H4V4h844M852,0H0v852h852V0h0Z"/>
    <polyline class="cls-1" points="266.16 452 850 452 850 849.73"/>
    <g>
      <path class="cls-3" d="M256.43,129c34,0,61.57,27.56,61.57,61.57v31.23c3.18-2.68,7.27-4.3,11.75-4.3,10.08,0,18.25,8.17,18.25,18.25v44.25h18c11.05,0,20,8.95,20,20h0c0,11.05-8.95,20-20,20H112c-11.05,0-20-8.95-20-20h0c0-11.05,8.95-20,20-20h18v-77.73c0-16.17,13.11-29.27,29.27-29.27h4.96c8.42,0,16.01,3.56,21.35,9.25,4.06-30.07,29.81-53.25,60.99-53.25h9.87M256.43,125h-9.87c-15.96,0-31.35,5.81-43.31,16.35-10.07,8.87-17.13,20.55-20.32,33.42-5.48-3.72-12.01-5.77-18.71-5.77h-4.96c-18.35,0-33.27,14.93-33.27,33.27v73.73h-14c-13.23,0-24,10.77-24,24s10.77,24,24,24h254c13.23,0,24-10.77,24-24s-10.77-24-24-24h-14v-40.25c0-12.27-9.98-22.25-22.25-22.25-2.66,0-5.29.48-7.75,1.4v-24.33c0-36.15-29.41-65.57-65.57-65.57h0Z"/>
      <path class="cls-3" d="M262,324v249.42h-.02c0,.15.02.3.02.45,0,7.25-10.07,13.12-22.5,13.12s-22.5-5.88-22.5-13.12c0-.15.01-.3.02-.45h-.02v-249.42h45M266,320h-53v257.42h.55c2.46,7.84,12.98,13.58,25.95,13.58s23.49-5.73,25.95-13.58h.53l.02-3.25c0-.1,0-.2,0-.3,0-.05,0-.1,0-.14v-.31s0-249.42,0-249.42v-4h0Z"/>
    </g>
    <path class="cls-1" d="M640.9,578.43c-42.68-10.2-99.73-16.43-162.4-16.43-132.27,0-239.5,27.76-239.5,62s107.23,62,239.5,62c41.46,0,80.45-2.73,114.46-7.52,0,0,7.91-27.41,20.34-52.88s27.6-47.17,27.6-47.17Z"/>
    <path class="cls-3" d="M822.19,485.5c8.72,0,17.33.54,25.81,1.61v360.89h-359.52c-.97-5.59-1.48-11.43-1.48-17.43,0-42.05,24.76-76.14,55.31-76.14,18.28,0,34.49,12.22,44.56,31.04-.82-8.36-1.24-17.37-1.24-27.1,0-150.7,105.91-272.87,236.56-272.87M822.19,481.5c-32.55,0-64.12,7.35-93.83,21.85-28.66,13.98-54.38,33.98-76.46,59.45-22.04,25.43-39.35,55.03-51.43,87.98-12.5,34.08-18.83,70.28-18.83,107.59,0,4.25.08,8.41.24,12.46-10.77-12.98-24.86-20.4-39.56-20.4-16.09,0-31.13,8.51-42.35,23.95-10.94,15.06-16.96,35.01-16.96,56.19,0,6.13.52,12.23,1.54,18.11l.58,3.32h366.89v-368.42l-3.5-.44c-8.63-1.09-17.48-1.64-26.31-1.64h0Z"/>
    <path class="cls-3" d="M4,538.94c32.65,20.67,58.75,52.44,74.04,90.62,12.85-17.72,30.05-28.56,48.96-28.56,39.76,0,72,47.91,72,107,0,1.72-.03,3.42-.08,5.12,6.29-5.03,13.67-7.93,21.58-7.93,22.92,0,41.5,24.35,41.5,54.4,0,15.11-4.7,28.78-12.29,38.64-6.95,10.69-19,17.77-32.7,17.77H4v-277.06M0,531.67v288.33h217.01c14.55,0,27.98-7.27,35.97-19.46,8.4-10.98,13.02-25.51,13.02-40.95s-4.61-29.93-12.97-40.9c-8.61-11.29-20.16-17.51-32.53-17.51-6.06,0-12,1.53-17.52,4.47-.4-28.49-8.09-55.24-21.76-75.55-14.37-21.35-33.63-33.11-54.23-33.11-17.61,0-34.42,8.72-47.91,24.73-7.42-16.9-16.98-32.54-28.46-46.58-12.87-15.73-27.84-29.05-44.49-39.59l-6.14-3.89h0Z"/>
  </g>
</svg>