<?xml version="1.0" encoding="UTF-8"?>
<svg id="Layer_2" data-name="Layer 2" xmlns="http://www.w3.org/2000/svg" viewBox="0 0 852 852">
  <defs>
    <style>
      .cls-1, .cls-2, .cls-3 {
        stroke-width: 0px;
      }

      .cls-2 {
        fill: #b3b3b3;
      }

      .cls-3 {
        fill: #666;
      }
    </style>
  </defs>
  <g id="Layer_6" data-name="Layer 6">
    <g>
      <path class="cls-2" d="M2,850v-399h311.04c.21-8.9,1.36-17.09,3.44-24.4,6.36-22.43,21.41-37.57,46-46.29,24.65-8.74,56.27-9.86,81.07-9.86h111.32c15.83,0,28.71-12.88,28.71-28.71v-40c0-36.58,4.07-65.83,12.43-89.42,7.71-21.75,18.91-38.17,34.24-50.17,27.7-21.7,64.83-26.14,112.07-26.14,59.38,0,107.68,48.31,107.68,107.68v606.32H2Z"/>
      <path class="cls-1" d="M742.32,138c58.36,0,105.68,47.32,105.68,105.68v604.32H4v-395h311.01c.07-9.72,1.24-18.29,3.39-25.85,13.32-46.94,64.29-54.7,125.15-54.7h111.32c16.96,0,30.71-13.75,30.71-30.71v-40c0-149.74,70.17-163.74,156.74-163.74M742.32,134c-47.65,0-85.15,4.52-113.3,26.57-15.64,12.25-27.05,28.96-34.89,51.08-8.44,23.81-12.55,53.28-12.55,90.09v40c0,14.73-11.98,26.71-26.71,26.71h-111.32c-47.51,0-68.64,5.33-81.74,9.98-25.25,8.95-40.7,24.53-47.26,47.63-1.97,6.92-3.13,14.63-3.45,22.94H0v403h852V243.68c0-60.48-49.2-109.68-109.68-109.68h0Z"/>
    </g>
    <g>
      <path class="cls-2" d="M4,451l-2-2V173.15l1.88-2c1.66-.1,3.32-.15,4.95-.15,35.85,0,72.78,3.17,100.04,26.19,29.68,25.06,44.11,70.71,44.11,139.55,0,37.89,26.15,68.71,58.28,68.71h26.7c46.72,0,65.15,7.7,78.12,16.02l.84,2.23c-2.13,7.5-3.24,16.01-3.31,25.32l-2,1.99H4Z"/>
      <path class="cls-1" d="M8.82,173c36.9,0,72.44,3.5,98.75,25.72,26.32,22.22,43.4,63.15,43.4,138.02,0,39.05,26.99,70.71,60.28,70.71h26.7c31.58,0,57.04,2.87,77.04,15.7-2.15,7.56-3.32,16.13-3.39,25.85H4V173.15c1.63-.1,3.24-.15,4.82-.15M8.82,169c-1.66,0-3.37.05-5.07.16l-3.75,3.99v275.85l4,4h307.61l4-3.97c.07-9.12,1.15-17.46,3.23-24.79l-1.69-4.46c-22.37-14.35-51.28-16.33-79.2-16.33h-26.7c-31.03,0-56.28-29.93-56.28-66.71,0-69.46-14.66-115.61-44.82-141.08-27.75-23.43-65.11-26.66-101.33-26.66h0Z"/>
    </g>
    <path class="cls-1" d="M848,4v844H4V4h844M852,0H0v852h852V0h0Z"/>
    <g>
      <rect class="cls-3" x="2" y="451" width="848" height="399"/>
      <path class="cls-1" d="M848,453v395H4v-395h844M852,449H0v403h852v-403h0Z"/>
    </g>
    <g>
      <g>
        <path class="cls-3" d="M112,322c-12.13,0-22-9.87-22-22s9.87-22,22-22h16v-75.73c0-17.24,14.03-31.27,31.27-31.27h4.96c7.3,0,14.4,2.6,19.99,7.23,5.8-29.46,31.96-51.23,62.35-51.23h9.87c35.05,0,63.57,28.52,63.57,63.57v27.44c2.97-1.63,6.33-2.51,9.75-2.51,11.17,0,20.25,9.08,20.25,20.25v42.25h16c12.13,0,22,9.87,22,22s-9.87,22-22,22H112Z"/>
        <path class="cls-1" d="M256.43,129c34,0,61.57,27.56,61.57,61.57v31.23c3.18-2.68,7.27-4.3,11.75-4.3,10.08,0,18.25,8.17,18.25,18.25v44.25h18c11.05,0,20,8.95,20,20h0c0,11.05-8.95,20-20,20H112c-11.05,0-20-8.95-20-20h0c0-11.05,8.95-20,20-20h18v-77.73c0-16.17,13.11-29.27,29.27-29.27h4.96c8.42,0,16.01,3.56,21.35,9.25,4.06-30.07,29.81-53.25,60.99-53.25h9.87M256.43,125h-9.87c-15.96,0-31.35,5.81-43.31,16.35-10.07,8.87-17.13,20.55-20.32,33.42-5.48-3.72-12.01-5.77-18.71-5.77h-4.96c-18.35,0-33.27,14.93-33.27,33.27v73.73h-14c-13.23,0-24,10.77-24,24s10.77,24,24,24h254c13.23,0,24-10.77,24-24s-10.77-24-24-24h-14v-40.25c0-12.27-9.98-22.25-22.25-22.25-2.66,0-5.29.48-7.75,1.4v-24.33c0-36.15-29.41-65.57-65.57-65.57h0Z"/>
      </g>
      <g>
        <path class="cls-3" d="M239.5,589c-12.89,0-23.16-5.85-24.38-13.58h-.1s-.02-1.41-.02-1.55v-255.88h49v257.42h-.12c-1.22,7.73-11.49,13.58-24.38,13.58Z"/>
        <path class="cls-1" d="M262,320v253.42h-.02c0,.15.02.3.02.45,0,7.25-10.07,13.12-22.5,13.12s-22.5-5.88-22.5-13.12c0-.15.01-.3.02-.45h-.02v-253.42h45M266,316h-53v261.42h.55c2.46,7.84,12.98,13.58,25.95,13.58s23.49-5.73,25.95-13.58h.53l.02-3.25c0-.1,0-.2,0-.29,0-.05,0-.1,0-.14v-.31s0-253.42,0-253.42v-4h0Z"/>
      </g>
    </g>
    <g>
      <path class="cls-3" d="M478.5,688c-64.14,0-124.46-6.47-169.85-18.22-26.76-6.93-71.65-22.08-71.65-45.78s44.89-38.85,71.65-45.78c45.39-11.75,105.72-18.22,169.85-18.22s124.46,6.47,169.85,18.22c26.76,6.93,71.65,22.08,71.65,45.78s-44.89,38.85-71.65,45.78c-45.39,11.75-105.72,18.22-169.85,18.22Z"/>
      <path class="cls-1" d="M478.5,562c132.27,0,239.5,27.76,239.5,62s-107.23,62-239.5,62-239.5-27.76-239.5-62,107.23-62,239.5-62M478.5,558c-64.3,0-124.8,6.49-170.35,18.29-22.38,5.79-40.01,12.58-52.41,20.17-13.76,8.42-20.73,17.69-20.73,27.54s6.98,19.12,20.73,27.54c12.4,7.59,30.03,14.37,52.41,20.17,45.55,11.79,106.05,18.29,170.35,18.29s124.8-6.49,170.35-18.29c22.38-5.79,40.01-12.58,52.41-20.17,13.76-8.42,20.73-17.69,20.73-27.54s-6.98-19.12-20.73-27.54c-12.4-7.59-30.03-14.37-52.41-20.17-45.55-11.79-106.05-18.29-170.35-18.29h0Z"/>
    </g>
    <path class="cls-1" d="M848,4v844H4V4h844M852,0H0v852h852V0h0Z"/>
    <g>
      <path class="cls-1" d="M486.8,850l-.29-1.66c-1-5.77-1.51-11.75-1.51-17.77,0-43.09,25.71-78.14,57.31-78.14,15.92,0,31.13,9.13,41.89,24.8-.38-6.02-.57-12.33-.57-18.86,0-73.37,24.78-142.36,69.78-194.26,45.07-51.98,105.01-80.61,168.78-80.61,8.74,0,17.51.55,26.06,1.63l1.75.22v364.65h-363.2Z"/>
      <path class="cls-1" d="M822.19,485.5c8.72,0,17.33.54,25.81,1.61v360.89h-359.52c-.97-5.59-1.48-11.43-1.48-17.43,0-42.05,24.76-76.14,55.31-76.14,18.28,0,34.49,12.22,44.56,31.04-.82-8.36-1.24-17.37-1.24-27.1,0-150.7,105.91-272.87,236.56-272.87M822.19,481.5c-32.55,0-64.12,7.35-93.83,21.85-28.66,13.98-54.38,33.98-76.46,59.45-22.04,25.43-39.35,55.03-51.43,87.98-12.5,34.08-18.83,70.28-18.83,107.59,0,4.25.08,8.41.24,12.46-10.77-12.98-24.86-20.4-39.56-20.4-16.09,0-31.13,8.51-42.35,23.95-10.94,15.06-16.96,35.01-16.96,56.19,0,6.13.52,12.23,1.54,18.11l.58,3.32h366.89v-368.42l-3.5-.44c-8.63-1.09-17.48-1.64-26.31-1.64h0Z"/>
    </g>
    <g>
      <path class="cls-1" d="M2,818v-282.69l3.07,1.94c32.02,20.27,58.01,51.54,73.49,88.3,13.44-17.15,30.53-26.55,48.44-26.55,40.8,0,74,48.9,74,109,0,.38,0,.77,0,1.15,6.02-3.91,12.69-5.96,19.5-5.96,23.99,0,43.5,25.3,43.5,56.4,0,15.03-4.49,29.16-12.66,39.8-7.61,11.66-20.44,18.61-34.33,18.61H2Z"/>
      <path class="cls-1" d="M4,538.94c32.65,20.67,58.75,52.44,74.04,90.62,12.85-17.72,30.05-28.56,48.96-28.56,39.76,0,72,47.91,72,107,0,1.72-.03,3.42-.08,5.12,6.29-5.03,13.67-7.93,21.58-7.93,22.92,0,41.5,24.35,41.5,54.4,0,15.11-4.7,28.78-12.29,38.64-6.95,10.69-19,17.77-32.7,17.77H4v-277.06M0,531.67v288.33h217.01c14.55,0,27.98-7.27,35.97-19.46,8.4-10.98,13.02-25.51,13.02-40.95s-4.61-29.93-12.97-40.89c-8.61-11.29-20.16-17.51-32.53-17.51-6.06,0-12,1.53-17.52,4.47-.4-28.49-8.09-55.24-21.76-75.55-14.37-21.35-33.63-33.11-54.23-33.11-17.61,0-34.42,8.72-47.91,24.73-7.42-16.9-16.98-32.54-28.46-46.58-12.87-15.73-27.84-29.05-44.49-39.59l-6.14-3.89h0Z"/>
    </g>
    <path class="cls-1" d="M848,4v844H4V4h844M852,0H0v852h852V0h0Z"/>
  </g>
</svg>