<?xml version="1.0" encoding="UTF-8"?>
<svg id="Layer_25" data-name="Layer 25" xmlns="http://www.w3.org/2000/svg" viewBox="0 0 628.97 485.24">
  <defs>
    <style>
      .cls-1 {
        stroke-width: 10px;
      }

      .cls-1, .cls-2 {
        fill: #f4f1e6;
      }

      .cls-1, .cls-2, .cls-3 {
        stroke: #000;
        stroke-miterlimit: 10;
      }

      .cls-2, .cls-3 {
        stroke-width: 2px;
      }
    </style>
  </defs>
  <g>
    <rect class="cls-2" x="60.95" y="105.7" width="64.07" height="30.25" transform="translate(35.17 -20.25) rotate(15.3)"/>
    <circle class="cls-3" cx="58.1" cy="105.7" r="39.51"/>
  </g>
  <g>
    <path class="cls-2" d="M548.69,78c-3.76-15.72-15.72-27.74-30.74-30.98-13.14-2.83-30.76-6.44-50.66-10.01-5.63-1.01-11.47.15-16.2,3.36-29.35,19.93-70.52,32.33-116.12,32.33s-86.77-12.4-116.12-32.33c-4.73-3.21-10.57-4.37-16.2-3.36-19.89,3.57-37.52,7.17-50.66,10.01-15.02,3.23-26.97,15.26-30.74,30.98-8.37,34.98-21.81,100.03-21.81,157.42s13.59,123.19,21.95,158.02c3.71,15.46,15.33,27.38,30.05,30.82,37.37,8.74,113.1,24.1,183.52,24.1s146.15-15.37,183.52-24.1c14.72-3.44,26.33-15.36,30.05-30.82,8.36-34.83,21.95-100.3,21.95-158.02s-13.43-122.44-21.81-157.42Z"/>
    <g>
      <path class="cls-2" d="M332.13,318.61c76.61.05,177.24-8.34,220.51-12.31,13.24-1.21,24.09-10.96,26.74-23.98,2.58-12.66,6.46-29.48,6.46-46.9,0-17.86-4.01-35.77-6.65-49.21-2.6-13.24-13.76-23.1-27.22-24.12-42.59-3.24-139.34-9.86-219.84-9.86h5.71c-80.5,0-177.25,6.62-219.84,9.86-13.46,1.03-24.62,10.88-27.22,24.12-2.64,13.44-6.65,31.35-6.65,49.21s3.88,34.24,6.46,46.9c2.65,13.02,13.51,22.77,26.74,23.98,43.27,3.97,143.9,12.36,220.51,12.31"/>
      <path class="cls-2" d="M332.35,302.21c70.63.04,163.41-6.8,203.3-10.03,12.2-.99,22.21-8.93,24.66-19.54,2.38-10.31,5.95-24.02,5.95-38.22,0-14.55-3.69-29.15-6.13-40.1s-12.69-18.82-25.1-19.66c-39.27-2.64-128.47-8.04-202.68-8.04h5.26c-74.22,0-163.41,5.39-202.68,8.04-12.41.84-22.7,8.86-25.1,19.66-2.44,10.95-6.13,25.55-6.13,40.1s3.58,27.91,5.95,38.22c2.44,10.61,12.46,18.56,24.66,19.54,39.89,3.23,132.67,10.07,203.3,10.03"/>
    </g>
    <path class="cls-1" d="M214.89,281.25l-45.41-1.71c-13.42-.5-24.04-11.53-24.04-24.96v-40.76c0-13.52,10.76-24.59,24.28-24.97l45.41-1.28c14.07-.4,25.68,10.9,25.68,24.97v43.74c0,14.16-11.76,25.5-25.92,24.96Z"/>
    <path class="cls-1" d="M456.81,281.25l45.41-1.71c13.42-.5,24.04-11.53,24.04-24.96v-40.76c0-13.52-10.76-24.59-24.28-24.97l-45.41-1.28c-14.07-.4-25.68,10.9-25.68,24.97v43.74c0,14.16,11.76,25.5,25.92,24.96Z"/>
    <circle class="cls-3" cx="334.98" cy="235.42" r="10"/>
  </g>
  <rect class="cls-2" x="152.27" y="58.2" width="46" height="46" rx="8" ry="8"/>
</svg>