<?xml version="1.0" encoding="UTF-8"?>
<svg id="Layer_24" data-name="Layer 24" xmlns="http://www.w3.org/2000/svg" viewBox="0 0 628.97 485.24">
  <defs>
    <style>
      .cls-1 {
        stroke-width: 10px;
      }

      .cls-1, .cls-2, .cls-3 {
        fill: #f4f1e6;
      }

      .cls-1, .cls-2, .cls-3, .cls-4 {
        stroke: #000;
        stroke-miterlimit: 10;
      }

      .cls-2, .cls-4 {
        stroke-width: 2px;
      }

      .cls-3 {
        stroke-width: 1.99px;
      }
    </style>
  </defs>
  <path class="cls-2" d="M592.04,315.1c-2.34-20.18-6.55-51.01-13.28-83.35,3.76-5.41,5.45-12.65,4.34-20.18-1.67-11.42-3.57-26.67-8.39-41.49-4.95-15.19-12.79-29.55-18.44-40.43-3.55-6.84-9.26-11.77-15.57-13.95-13.21-29.03-27.39-55.39-37.15-72.71-7.25-12.87-19.72-21.11-32.16-21.21-11-.09-25.88,6.96-42.76,7.46-4.82.14-9.21,2.26-12.11,6.02-18.25,23.62-49.23,36.37-88.9,46.15-41.15,10.14-83.55,7.59-118.22-5.17-5.67-2.09-13.27-5.37-18.52-3.1-18.75,8.14-35.88,17.24-46.61,25.4-12.85,9.78-23.17,22.22-21.91,39.27,1.12,15.23,3,35.69,6.08,58.56,2.49,18.52-6.31,36.74-22.34,46.36-35.69,21.41-67.53,42.62-85.11,54.61-10.96,7.48-17.05,20.33-15.67,33.3,1.23,11.59,4.78,27.29,13.53,46.55,9.19,20.24,19.21,33.58,27.35,42.1,8.49,8.89,21.23,12.72,33.46,10.11,16.81-3.58,46.18-10.79,86.96-24.4,14.04-4.68,29.44,1.29,36.64,14.23,9.09,16.34,17.62,30.54,24.37,41.39,8.89,14.29,24.48,21.68,40.16,19.14,38.94-6.29,113.45-20.71,174.34-46.7,57.55-24.57,111.6-63.13,136.83-82.37,9.74-7.43,14.77-21.19,13.09-35.6Z"/>
  <g>
    <rect class="cls-2" x="99.49" y="172.72" width="59.76" height="28.22" transform="translate(53.87 -27.51) rotate(15.3)"/>
    <circle class="cls-4" cx="96.83" cy="172.72" r="36.85"/>
  </g>
  <path class="cls-3" d="M595.58,250.21h0c.27-13.76,3.9-25.33,10.91-34.69l-15.27,9.48c-4.14-22.05-9.36-45.12-15.9-66.32-6.42-20.82-14.86-42.34-23.64-62.44l.19.43,8.1-1.64c-4.48-.21-8.6-3.11-12.44-8.16l.15.35c-10.95-24.3-22.02-45.95-30-60.93-6.95-13.04-18.91-21.39-30.84-21.49-10.24-.09-23.99-.04-39.6.42-1.04-.02-2.13-.02-3.28.01-4.67.15-19.22,8.43-22.04,12.28-10.28,14.06-24.74,26.78-42.59,36.93-9.39,4.31-19.54,7.95-30.37,10.77-39.46,10.27-80.12,7.69-113.37-5.23-5.44-2.11-11.31-1.93-16.35.38-4.46,2.05-8.8,4.07-12.99,6.05-.51.19-1.03.38-1.53.61-18.17,8.33-34.38,16.29-46.59,22.45-14.12,7.12-22.45,22.75-21.23,40.21,1.4,20.18,4.04,49.36,8.84,81.22,1.3,8.66.46,17.59-2.83,25.64-2.06,5.03-2.92,10.65-2.29,16.41,1.66,15.16,3.37,35.58,9.23,54.6,5.72,18.56,15.24,35.05,22.02,47.54,2.69,4.95,6.45,8.91,10.84,11.69,7.08,4.49,12.72,11.16,16.44,18.95,14.44,30.18,29.3,56.7,39.74,74.45,8.62,14.64,23.72,22.19,38.91,19.6,37.73-6.44,109.92-21.2,168.91-47.82,55.76-25.16,128.24-74.08,140.09-86.32s17.32-29.01,15.71-43.62c-1.48-13.47-3.74-31.62-6.95-51.81Z"/>
  <g>
    <path class="cls-2" d="M235.65,128.87l-30.46,6.8c-4.55,1.02-9.3-1.81-10.6-6.33l-8.78-30.63c-1.29-4.51,1.38-8.92,5.96-9.85l30.63-6.2c4.45-.9,9.06,1.96,10.33,6.38l8.61,30.03c1.27,4.42-1.27,8.81-5.7,9.79Z"/>
    <g>
      <g>
        <path class="cls-2" d="M440.56,291.49c63.79-23.07,139.63-58.76,170.41-73.61,9.22-4.45,14.29-15.53,12.56-27.31-1.67-11.42-3.57-26.67-8.39-41.49s-12.8-29.55-18.43-40.43-16.46-16.8-26.67-14.83c-32.99,6.38-111.75,22.34-180.25,41.73l5-1.41c-72.72,20.58-164.6,53.85-207.41,69.74-13.86,5.14-22.44,18.78-20.76,33.34s3.48,34.75,9.53,53.33c5.9,18.12,15.72,34.23,22.73,46.44,7.19,12.53,21.84,18.59,35.94,14.96,44.99-11.58,143.14-37.72,210.63-62.22"/>
        <path class="cls-2" d="M435.74,276.06c59.08-20.9,129.94-52.72,158.84-65.99,8.67-3.98,13.73-13.35,12.53-23.07s-2.4-22.05-6.36-34.22c-4.06-12.47-10.83-24.15-15.67-33.01-4.78-8.75-14.64-13.41-24.13-11.42-30.61,6.43-103.41,22.34-166.58,40.64l4.6-1.33c-66.75,19.34-150.81,49.6-189.8,63.94-12.6,4.63-20.69,16.05-19.6,27.91s2.11,28.31,7,43.32c4.77,14.64,13.11,27.53,19.05,37.31,6.09,10.04,19.07,14.6,31.86,11.26,40.88-10.69,130.56-34.84,192.78-56.94"/>
      </g>
      <path class="cls-1" d="M323.05,293.01l-44.52,13.42c-13.49,4.07-27.78-3.44-32.21-17.05l-13.44-41.28c-4.46-13.7,2.82-28.19,16.29-32.65l44.12-14.62c13.33-4.42,27.9,3.28,32.35,16.97l13.86,42.55c4.49,13.78-2.91,28.59-16.44,32.67Z"/>
      <path class="cls-1" d="M531.59,221.22l34.45-13.52c9.96-3.91,14.76-16.22,10.95-27.9l-11.54-35.45c-3.83-11.76-15.09-18.94-25.51-16.18l-35.77,9.48c-11.33,3-17.37,15.99-13.24,28.68l12.84,39.44c4.16,12.77,16.83,19.77,27.81,15.46Z"/>
      <path class="cls-4" d="M426.27,209.95c1.68,5.15-.81,10.58-5.58,12.14s-10.05-1.37-11.75-6.56.85-10.64,5.65-12.16,10,1.43,11.68,6.58Z"/>
    </g>
  </g>
</svg>