<?xml version="1.0" encoding="UTF-8"?>
<svg id="Layer_28" data-name="Layer 28" xmlns="http://www.w3.org/2000/svg" viewBox="0 0 1346.92 517.16">
  <defs>
    <style>
      .cls-1, .cls-2 {
        fill: #f4f1e6;
      }

      .cls-1, .cls-2, .cls-3, .cls-4 {
        stroke: #000;
        stroke-width: 2px;
      }

      .cls-1, .cls-3 {
        stroke-miterlimit: 10;
      }

      .cls-2, .cls-4 {
        stroke-linecap: round;
        stroke-linejoin: round;
      }
    </style>
  </defs>
  <path class="cls-1" d="M220.46,255.44s-135.18-94.58-144.19-125.27c-9.02-30.69,51.48-58.84,179.96-44.27,107.21,12.16,204.26,72.28,233.46,91.86l106.81-30.84S380.6-13.35,126.28,6.52c-254.31,19.87,94.04,249.01,94.04,249.01l1.69-.49-1.55.4Z"/>
  <path class="cls-1" d="M225.54,440.18l-16.81-11.06s-19.56-10.08-27.69-28.81c0,0-5.25-14.82-5.25-70.87s7.05-79.77,7.05-79.77c3.57-18.6,15.36-29.46,32.47-34.04,0,0,126.98-20.75,187.36-37.08,60.38-16.33,153.19-54.17,153.19-54.17,12.29-4.42,28.39,7.53,28.39,7.53l22.6,14.88"/>
  <path class="cls-1" d="M222.02,255.04s-97.3-63.14-154.9-128.81C9.51,60.57,51.13,26.78,51.13,26.78c0,0-63.94,39.46-3.05,177.24,60.9,137.78,163.92,191.93,163.92,191.93l10.01-140.91Z"/>
  <path class="cls-1" d="M618.87,155s-27.75-21.96-36.92-13.94c0,0-77.41,43.37-144.65,62.71-67.24,19.34-195.91,28.54-195.91,28.54-17.11,4.58-27.01,17.21-31.8,35.06,0,0-7.72,26.46-7.72,74.77s4.47,71.54,4.47,71.54c0,17.11,31.89,34.99,31.89,34.99l65.96,43.1,375.66-296.34-60.98-40.42Z"/>
  <path class="cls-3" d="M659.59,193.13s-81.01,34.99-153.19,54.17c-72.19,19.18-187.36,37.08-187.36,37.08-17.11,4.58-26.21,14.28-31.06,32.22,0,0-8.46,22.3-8.46,74.36s3.77,70.41,3.77,70.41c0,17.11,28,35.73,28,35.73l16.92,10.67,379.36-293.53c-27.06-17.43-30.86-25.69-47.97-21.1Z"/>
  <path class="cls-1" d="M693.4,422.1l-340.56,91.25c-17.11,4.58-30.98-5.57-30.98-22.68v-144.81c0-17.11,13.87-34.7,30.98-39.28l340.56-91.25c17.11-4.58,30.98,5.57,30.98,22.68v144.81c0,17.11-13.87,34.7-30.98,39.28Z"/>
  <g>
    <path class="cls-4" d="M465.68,201.96c-5.45-8.14-14.68-11.97-25.14-9.17-10.46,2.8-19.69,11.58-25.14,22.64l8.6,3.85,5.4-7.6,36.27-9.72Z"/>
    <path class="cls-2" d="M474.28,205.81c-5.45-8.14-14.68-11.97-25.14-9.17-10.46,2.8-19.69,11.58-25.14,22.64l50.28-13.47Z"/>
  </g>
  <path class="cls-2" d="M241.95,401.98l-7.04-2.52c-10.94-3.91-19.81-18.9-19.81-33.49v-35.42c0-14.59,8.87-23.24,19.81-19.34l7.04,2.52c10.94,3.91,19.81,18.9,19.81,33.49v35.42c0,14.59-8.87,23.24-19.81,19.34Z"/>
  <path class="cls-4" d="M115.32,72.47l-8.56-2.65c-5.51-1.71-12.09.44-17.61,5.74l-8.56,8.24c-8.78,8.45-19.69,4.95-20.26-6.91-.02-.35-.03-.7-.03-1.05v-19.25c0-9.97,6.64-20.22,14.83-22.89l45.64-14.89c8.19-2.67,14.83,3.25,14.83,13.22v19.25c0,.36,0,.71-.03,1.07-.57,12.23-11.48,22.85-20.26,20.13Z"/>
  <ellipse class="cls-4" cx="424.5" cy="465.93" rx="17.25" ry="12.46" transform="translate(-129.55 766.47) rotate(-76.14)"/>
  <ellipse class="cls-4" cx="649.9" cy="403.77" rx="17.25" ry="12.46" transform="translate(102.21 938.04) rotate(-76.14)"/>
</svg>