<?xml version="1.0" encoding="UTF-8"?>
<svg id="Layer_31" data-name="Layer 31" xmlns="http://www.w3.org/2000/svg" viewBox="0 0 1346.92 517.16">
  <defs>
    <style>
      .cls-1 {
        stroke-miterlimit: 10;
      }

      .cls-1, .cls-2, .cls-3 {
        stroke: #000;
        stroke-width: 2px;
      }

      .cls-1, .cls-3, .cls-4 {
        fill: #f4f1e6;
      }

      .cls-2, .cls-3 {
        stroke-linejoin: round;
      }

      .cls-4 {
        stroke-width: 0px;
      }
    </style>
  </defs>
  <path class="cls-1" d="M931.2,357.61h9.5c20.33,0,36.84,16.51,36.84,36.84v76.25c0,20.33-16.51,36.84-36.84,36.84h-9.5c-20.33,0-36.84-16.51-36.84-36.84v-76.25c0-20.33,16.51-36.84,36.84-36.84Z" transform="translate(-82.15 595.66) rotate(-33.91)"/>
  <path class="cls-1" d="M899.47,360.73l-7.39.83c-4.75.53-9.54.53-14.28,0l-7.39-.83c-4.21,0-7.63-3.42-7.63-7.63h0c0-4.21,3.42-7.63,7.63-7.63h29.06c4.21,0,7.63,3.42,7.63,7.63h0c0,4.21-3.42,7.63-7.63,7.63Z"/>
  <path class="cls-3" d="M1002.4,280.84c0-62.19-51.88-112.25-114.72-109.28-56.02,2.65-101.4,48.1-103.97,104.13-1.71,37.3,15.28,70.7,42.38,91.68h-.04s47.04,53.3,47.04,53.3c10.61,12.02,29.32,12.13,40.07.23l53.18-58.88h0c22.15-20.02,36.06-48.97,36.06-81.17ZM884.94,361.96c-17.46,0-33.71-5.21-47.28-14.14-10.54-14.31-16.78-31.99-16.78-51.13,0-47.68,38.65-86.33,86.33-86.33,17.22,0,33.25,5.06,46.72,13.75,10.79,14.4,17.19,32.28,17.19,51.66,0,47.6-38.59,86.19-86.19,86.19Z"/>
  <path class="cls-2" d="M876.38,376.23h0c10.87-3.47,22.38-3.47,33.25,0h0c5.91,1.89,8.99,9.27,6.54,15.67l-7.27,18.97c-7.49,13.05-24.31,13.05-31.8,0l-7.27-18.97c-2.45-6.4.63-13.78,6.54-15.67Z"/>
  <path class="cls-3" d="M872.3,373.96h0c10.87-3.47,22.38-3.47,33.25,0h0c5.91,1.89,8.99,9.27,6.54,15.67l-7.27,18.97c-7.49,13.05-24.31,13.05-31.8,0l-7.27-18.97c-2.45-6.4.63-13.78,6.54-15.67Z"/>
  <path class="cls-2" d="M974.81,437.09l-16.66,15.92c-3.36,3.21-8.53,2.09-11.95-2.13h0c-3.42-4.21-4.51-10.79-2.14-15.23l11.74-21.98c5.17-9.67,15.53-12.86,21.97-4.93h0c6.44,7.93,4.37,21.33-2.96,28.34Z"/>
  <rect class="cls-3" x="880.14" y="335.87" width="9.6" height="9.6"/>
  <rect class="cls-4" x="955.73" y="410.44" width="25.01" height="20.44" rx="9.98" ry="9.98" transform="translate(119.82 1048.85) rotate(-60)"/>
  <rect class="cls-3" x="872.69" y="329.94" width="24.5" height="7.9" rx="3.95" ry="3.95"/>
  <path class="cls-3" d="M820.88,296.75c0-47.68,38.65-86.33,86.33-86.33,17.22,0,33.25,5.06,46.72,13.75-15.72-20.97-40.77-34.53-69-34.53-47.6,0-86.19,38.59-86.19,86.19,0,30.14,15.48,56.64,38.91,72.05-10.54-14.31-16.78-31.99-16.78-51.13Z"/>
</svg>