<?xml version="1.0" encoding="UTF-8"?>
<svg id="Layer_30" data-name="Layer 30" xmlns="http://www.w3.org/2000/svg" viewBox="0 0 1346.92 517.16">
  <defs>
    <style>
      .cls-1, .cls-2 {
        stroke: #000;
        stroke-linejoin: round;
        stroke-width: 2px;
      }

      .cls-2 {
        fill: #f4f1e6;
      }
    </style>
  </defs>
  <path class="cls-2" d="M1221.53,204.27l-80.4,16.2c-13.59,2.74-23.92,12.57-27.98,24.86l-57.56,77.76c-18.87,25.49-16.62,59.14,5.02,75.16h0c21.64,16.02,54.48,8.34,73.35-17.15l67.86-91.67,35.44-7.14c20.15-4.06,33.19-23.68,29.13-43.83l-1.02-5.06c-4.06-20.15-23.68-33.19-43.83-29.13Z"/>
  <path class="cls-2" d="M1237.53,71.09c-58.2-43.08-124.66-51.97-148.44-19.84s4.13,93.09,62.33,136.18c58.2,43.08,124.66,51.97,148.44,19.84,23.78-32.12-4.13-93.09-62.33-136.18ZM1282.74,164.97c-9.43,12.74-50.25-1.49-91.18-31.78s-66.45-65.18-57.02-77.92c9.43-12.74,50.25,1.49,91.18,31.78,40.92,30.29,66.45,65.18,57.02,77.92Z"/>
  <rect class="cls-2" x="1100.7" y="273.27" width="72.71" height="43.32" rx="21.66" ry="21.66" transform="translate(111.15 -277.26) rotate(14.61)"/>
  <path class="cls-1" d="M1141.61,273.75l15.24,3.97c11.58,3.02,18.51,14.85,15.5,26.42h0c-3.02,11.58-14.85,18.51-26.42,15.5l-15.47-4.03,11.16-41.86Z"/>
  <g>
    <path class="cls-2" d="M1275.76,270.45l8.51-53.9c.93-5.88-4.29-10.88-10.12-9.7l-17.95,3.62c-39.81,16.84-28.29,64.28,19.56,59.98Z"/>
    <path class="cls-1" d="M1256.36,279.21l19.39-8.76c-17.12-2.29-30.77-12.41-33.67-26.79-2.44-12.11,3.32-24.4,14.11-33.19-20.88,7.28-34.28,25.01-30.78,42.39,2.74,13.61,15.12,23.4,30.95,26.35Z"/>
  </g>
</svg>