<?xml version="1.0" encoding="UTF-8"?>
<svg id="Layer_8" data-name="Layer 8" xmlns="http://www.w3.org/2000/svg" viewBox="0 0 1370.22 609.19">
  <defs>
    <style>
      .cls-1 {
        stroke-width: 2.29px;
      }

      .cls-1, .cls-2, .cls-3, .cls-4, .cls-5, .cls-6 {
        stroke-linejoin: round;
      }

      .cls-1, .cls-2, .cls-4, .cls-5, .cls-6 {
        stroke: #000;
      }

      .cls-1, .cls-4 {
        fill: #f4f1e6;
      }

      .cls-2, .cls-4, .cls-5, .cls-6 {
        stroke-width: 2px;
      }

      .cls-3 {
        fill: none;
        stroke: #fff;
        stroke-linecap: round;
        stroke-width: 1.99px;
      }

      .cls-5 {
        fill: red;
      }

      .cls-6 {
        fill: blue;
      }
    </style>
  </defs>
  <g>
    <polygon class="cls-1" points="1210.22 394.63 160 394.63 0 552.71 1370.22 552.71 1210.22 394.63"/>
    <rect class="cls-2" y="552.71" width="1370.22" height="56.48"/>
  </g>
  <g>
    <g>
      <polygon class="cls-2" points="685.11 84.5 672.26 94.5 672.26 438.82 685.11 428.82 685.11 84.5"/>
      <polygon class="cls-4" points="671.6 438.82 526.45 358.82 526.45 14.5 671.6 94.5 671.6 438.82"/>
      <polygon class="cls-4" points="656.57 394.63 541.48 331.2 541.48 58.18 656.57 121.62 656.57 394.63"/>
      <polygon class="cls-6" points="646.24 364.42 551.82 312.38 551.82 88.4 646.24 140.44 646.24 364.42"/>
      <polygon class="cls-4" points="671.6 94.5 685.11 84.5 540.42 6.88 526.45 14.5 671.6 94.5"/>
      <line class="cls-4" x1="646.24" y1="364.42" x2="551.82" y2="88.4"/>
      <line class="cls-4" x1="551.82" y1="312.38" x2="646.24" y2="140.44"/>
    </g>
    <g>
      <polygon class="cls-2" points="685.11 84.5 697.96 94.5 697.96 438.82 685.11 428.82 685.11 84.5"/>
      <polygon class="cls-4" points="698.61 438.82 843.76 358.82 843.76 14.5 698.61 94.5 698.61 438.82"/>
      <polygon class="cls-4" points="713.64 394.63 828.73 331.2 828.73 58.18 713.64 121.62 713.64 394.63"/>
      <polygon class="cls-5" points="723.98 364.42 818.4 312.38 818.4 88.4 723.98 140.44 723.98 364.42"/>
      <polygon class="cls-4" points="698.61 94.5 685.11 84.5 829.8 6.88 843.76 14.5 698.61 94.5"/>
      <line class="cls-4" x1="723.98" y1="364.42" x2="818.4" y2="88.4"/>
      <line class="cls-4" x1="818.4" y1="312.38" x2="723.98" y2="140.44"/>
    </g>
  </g>
  <polygon class="cls-4" points="715.23 553.33 715.81 553.33 715.81 453.04 654.41 453.04 654.41 553.33 634.41 577.55 735.23 577.55 715.23 553.33"/>
  <ellipse class="cls-4" cx="685.11" cy="452.54" rx="30.7" ry="15.05"/>
  <ellipse class="cls-4" cx="685.11" cy="492.92" rx="18.5" ry="9.07"/>
  <path class="cls-4" d="M684.96,230.5s-25.86,7.57-39.44,7.57-39.44-7.57-39.44-7.57v-12.16s25.96,7.57,39.44,7.57,39.44-7.57,39.44-7.57v12.16Z"/>
  <g>
    <circle class="cls-4" cx="606.09" cy="228.21" r="35.55"/>
    <circle class="cls-4" cx="605.65" cy="228.21" r="25.36"/>
  </g>
  <path class="cls-4" d="M767.43,230.5s-25.86,7.57-39.44,7.57-39.44-7.57-39.44-7.57v-12.16s25.96,7.57,39.44,7.57,39.44-7.57,39.44-7.57v12.16Z"/>
  <g>
    <circle class="cls-4" cx="763.55" cy="228.21" r="35.55"/>
    <circle class="cls-4" cx="763.11" cy="228.21" r="25.36"/>
  </g>
  <line class="cls-3" x1="685.11" y1="86.09" x2="685.11" y2="202.77"/>
  <path class="cls-4" d="M685.11,202.77c12.4,0,22.45,21.41,22.45,47.82,0,0-8.32,47.82-9.15,82.74s-2.49,98.95,4.57,118.07c0,0-8.73,7.96-17.88,7.72-9.15.24-17.88-7.72-17.88-7.72,7.07-19.12,5.4-83.15,4.57-118.07-.83-34.92-9.15-82.74-9.15-82.74,0-26.41,10.05-47.82,22.45-47.82Z"/>
</svg>